<svg width="311" height="16" viewBox="0 0 311 16" fill="none" xmlns="http://www.w3.org/2000/svg">
<path opacity="0.5" d="M310.707 8.70711C311.098 8.31658 311.098 7.68342 310.707 7.29289L304.343 0.928932C303.953 0.538408 303.319 0.538408 302.929 0.928932C302.538 1.31946 302.538 1.95262 302.929 2.34315L308.586 8L302.929 13.6569C302.538 14.0474 302.538 14.6805 302.929 15.0711C303.319 15.4616 303.953 15.4616 304.343 15.0711L310.707 8.70711ZM0 9H2.98077V7H0V9ZM8.94231 9H14.9038V7H8.94231V9ZM20.8654 9H26.8269V7H20.8654V9ZM32.7885 9H38.75V7H32.7885V9ZM44.7115 9H50.6731V7H44.7115V9ZM56.6346 9H62.5962V7H56.6346V9ZM68.5577 9H74.5192V7H68.5577V9ZM80.4808 9H86.4423V7H80.4808V9ZM92.4039 9H98.3654V7H92.4039V9ZM104.327 9H110.288V7H104.327V9ZM116.25 9H122.212V7H116.25V9ZM128.173 9H134.135V7H128.173V9ZM140.096 9H146.058V7H140.096V9ZM152.019 9H157.981V7H152.019V9ZM163.942 9H169.904V7H163.942V9ZM175.865 9H181.827V7H175.865V9ZM187.788 9H193.75V7H187.788V9ZM199.711 9H205.673V7H199.711V9ZM211.635 9H217.596V7H211.635V9ZM223.558 9H229.519V7H223.558V9ZM235.481 9H241.442V7H235.481V9ZM247.404 9H253.365V7H247.404V9ZM259.327 9H265.288V7H259.327V9ZM271.25 9H277.211V7H271.25V9ZM283.173 9H289.135V7H283.173V9ZM295.096 9H301.058V7H295.096V9ZM307.019 9H310V7H307.019V9Z" fill="#918C88"/>
</svg>
