<svg width="196" height="191" viewBox="0 0 196 191" fill="none" xmlns="http://www.w3.org/2000/svg">
<g opacity="0.5">
<path d="M2.12 4.24002C3.29084 4.24002 4.23999 3.29084 4.23999 2.12C4.23999 0.949151 3.29084 0 2.12 0C0.949151 0 0 0.949151 0 2.12C0 3.29084 0.949151 4.24002 2.12 4.24002Z" fill="#918C88"/>
<path d="M21.22 4.24002C22.3909 4.24002 23.34 3.29084 23.34 2.12C23.34 0.949151 22.3909 0 21.22 0C20.0492 0 19.1 0.949151 19.1 2.12C19.1 3.29084 20.0492 4.24002 21.22 4.24002Z" fill="#918C88"/>
<path d="M40.32 4.24002C41.4909 4.24002 42.44 3.29084 42.44 2.12C42.44 0.949151 41.4909 0 40.32 0C39.1492 0 38.2 0.949151 38.2 2.12C38.2 3.29084 39.1492 4.24002 40.32 4.24002Z" fill="#918C88"/>
<path d="M59.42 4.24002C60.5909 4.24002 61.54 3.29084 61.54 2.12C61.54 0.949151 60.5909 0 59.42 0C58.2492 0 57.3 0.949151 57.3 2.12C57.3 3.29084 58.2492 4.24002 59.42 4.24002Z" fill="#918C88"/>
<path d="M80.64 2.12C80.64 3.29 79.69 4.24002 78.52 4.24002C77.35 4.24002 76.4 3.29 76.4 2.12C76.4 0.949995 77.35 0 78.52 0C79.69 0 80.64 0.949995 80.64 2.12Z" fill="#918C88"/>
<path d="M97.61 4.24002C98.7808 4.24002 99.73 3.29084 99.73 2.12C99.73 0.949151 98.7808 0 97.61 0C96.4391 0 95.49 0.949151 95.49 2.12C95.49 3.29084 96.4391 4.24002 97.61 4.24002Z" fill="#918C88"/>
<path d="M116.71 4.24002C117.881 4.24002 118.83 3.29084 118.83 2.12C118.83 0.949151 117.881 0 116.71 0C115.539 0 114.59 0.949151 114.59 2.12C114.59 3.29084 115.539 4.24002 116.71 4.24002Z" fill="#918C88"/>
<path d="M135.81 4.24002C136.981 4.24002 137.93 3.29084 137.93 2.12C137.93 0.949151 136.981 0 135.81 0C134.639 0 133.69 0.949151 133.69 2.12C133.69 3.29084 134.639 4.24002 135.81 4.24002Z" fill="#918C88"/>
<path d="M154.91 4.24002C156.081 4.24002 157.03 3.29084 157.03 2.12C157.03 0.949151 156.081 0 154.91 0C153.739 0 152.79 0.949151 152.79 2.12C152.79 3.29084 153.739 4.24002 154.91 4.24002Z" fill="#918C88"/>
<path d="M174.01 4.24002C175.181 4.24002 176.13 3.29084 176.13 2.12C176.13 0.949151 175.181 0 174.01 0C172.839 0 171.89 0.949151 171.89 2.12C171.89 3.29084 172.839 4.24002 174.01 4.24002Z" fill="#918C88"/>
<path d="M193.11 4.24002C194.281 4.24002 195.23 3.29084 195.23 2.12C195.23 0.949151 194.281 0 193.11 0C191.939 0 190.99 0.949151 190.99 2.12C190.99 3.29084 191.939 4.24002 193.11 4.24002Z" fill="#918C88"/>
<path d="M2.12 21.22C3.29084 21.22 4.23999 20.2708 4.23999 19.1C4.23999 17.9291 3.29084 16.98 2.12 16.98C0.949151 16.98 0 17.9291 0 19.1C0 20.2708 0.949151 21.22 2.12 21.22Z" fill="#918C88"/>
<path d="M21.22 21.22C22.3909 21.22 23.34 20.2708 23.34 19.1C23.34 17.9291 22.3909 16.98 21.22 16.98C20.0492 16.98 19.1 17.9291 19.1 19.1C19.1 20.2708 20.0492 21.22 21.22 21.22Z" fill="#918C88"/>
<path d="M40.32 21.22C41.4909 21.22 42.44 20.2708 42.44 19.1C42.44 17.9291 41.4909 16.98 40.32 16.98C39.1492 16.98 38.2 17.9291 38.2 19.1C38.2 20.2708 39.1492 21.22 40.32 21.22Z" fill="#918C88"/>
<path d="M59.42 21.22C60.5909 21.22 61.54 20.2708 61.54 19.1C61.54 17.9291 60.5909 16.98 59.42 16.98C58.2492 16.98 57.3 17.9291 57.3 19.1C57.3 20.2708 58.2492 21.22 59.42 21.22Z" fill="#918C88"/>
<path d="M80.64 19.1C80.64 20.27 79.69 21.22 78.52 21.22C77.35 21.22 76.4 20.27 76.4 19.1C76.4 17.93 77.35 16.98 78.52 16.98C79.69 16.98 80.64 17.93 80.64 19.1Z" fill="#918C88"/>
<path d="M97.61 21.22C98.7808 21.22 99.73 20.2708 99.73 19.1C99.73 17.9291 98.7808 16.98 97.61 16.98C96.4391 16.98 95.49 17.9291 95.49 19.1C95.49 20.2708 96.4391 21.22 97.61 21.22Z" fill="#918C88"/>
<path d="M116.71 21.22C117.881 21.22 118.83 20.2708 118.83 19.1C118.83 17.9291 117.881 16.98 116.71 16.98C115.539 16.98 114.59 17.9291 114.59 19.1C114.59 20.2708 115.539 21.22 116.71 21.22Z" fill="#918C88"/>
<path d="M135.81 21.22C136.981 21.22 137.93 20.2708 137.93 19.1C137.93 17.9291 136.981 16.98 135.81 16.98C134.639 16.98 133.69 17.9291 133.69 19.1C133.69 20.2708 134.639 21.22 135.81 21.22Z" fill="#918C88"/>
<path d="M154.91 21.22C156.081 21.22 157.03 20.2708 157.03 19.1C157.03 17.9291 156.081 16.98 154.91 16.98C153.739 16.98 152.79 17.9291 152.79 19.1C152.79 20.2708 153.739 21.22 154.91 21.22Z" fill="#918C88"/>
<path d="M174.01 21.22C175.181 21.22 176.13 20.2708 176.13 19.1C176.13 17.9291 175.181 16.98 174.01 16.98C172.839 16.98 171.89 17.9291 171.89 19.1C171.89 20.2708 172.839 21.22 174.01 21.22Z" fill="#918C88"/>
<path d="M193.11 21.22C194.281 21.22 195.23 20.2708 195.23 19.1C195.23 17.9291 194.281 16.98 193.11 16.98C191.939 16.98 190.99 17.9291 190.99 19.1C190.99 20.2708 191.939 21.22 193.11 21.22Z" fill="#918C88"/>
<path d="M2.12 38.19C3.29084 38.19 4.23999 37.2409 4.23999 36.07C4.23999 34.8992 3.29084 33.95 2.12 33.95C0.949151 33.95 0 34.8992 0 36.07C0 37.2409 0.949151 38.19 2.12 38.19Z" fill="#918C88"/>
<path d="M21.22 38.19C22.3909 38.19 23.34 37.2409 23.34 36.07C23.34 34.8992 22.3909 33.95 21.22 33.95C20.0492 33.95 19.1 34.8992 19.1 36.07C19.1 37.2409 20.0492 38.19 21.22 38.19Z" fill="#918C88"/>
<path d="M40.32 38.19C41.4909 38.19 42.44 37.2409 42.44 36.07C42.44 34.8992 41.4909 33.95 40.32 33.95C39.1492 33.95 38.2 34.8992 38.2 36.07C38.2 37.2409 39.1492 38.19 40.32 38.19Z" fill="#918C88"/>
<path d="M59.42 38.19C60.5909 38.19 61.54 37.2409 61.54 36.07C61.54 34.8992 60.5909 33.95 59.42 33.95C58.2492 33.95 57.3 34.8992 57.3 36.07C57.3 37.2409 58.2492 38.19 59.42 38.19Z" fill="#918C88"/>
<path d="M80.64 36.07C80.64 37.24 79.69 38.19 78.52 38.19C77.35 38.19 76.4 37.24 76.4 36.07C76.4 34.9 77.35 33.95 78.52 33.95C79.69 33.95 80.64 34.9 80.64 36.07Z" fill="#918C88"/>
<path d="M97.61 38.19C98.7808 38.19 99.73 37.2409 99.73 36.07C99.73 34.8992 98.7808 33.95 97.61 33.95C96.4391 33.95 95.49 34.8992 95.49 36.07C95.49 37.2409 96.4391 38.19 97.61 38.19Z" fill="#918C88"/>
<path d="M116.71 38.19C117.881 38.19 118.83 37.2409 118.83 36.07C118.83 34.8992 117.881 33.95 116.71 33.95C115.539 33.95 114.59 34.8992 114.59 36.07C114.59 37.2409 115.539 38.19 116.71 38.19Z" fill="#918C88"/>
<path d="M135.81 38.19C136.981 38.19 137.93 37.2409 137.93 36.07C137.93 34.8992 136.981 33.95 135.81 33.95C134.639 33.95 133.69 34.8992 133.69 36.07C133.69 37.2409 134.639 38.19 135.81 38.19Z" fill="#918C88"/>
<path d="M154.91 38.19C156.081 38.19 157.03 37.2409 157.03 36.07C157.03 34.8992 156.081 33.95 154.91 33.95C153.739 33.95 152.79 34.8992 152.79 36.07C152.79 37.2409 153.739 38.19 154.91 38.19Z" fill="#918C88"/>
<path d="M174.01 38.19C175.181 38.19 176.13 37.2409 176.13 36.07C176.13 34.8992 175.181 33.95 174.01 33.95C172.839 33.95 171.89 34.8992 171.89 36.07C171.89 37.2409 172.839 38.19 174.01 38.19Z" fill="#918C88"/>
<path d="M193.11 38.19C194.281 38.19 195.23 37.2409 195.23 36.07C195.23 34.8992 194.281 33.95 193.11 33.95C191.939 33.95 190.99 34.8992 190.99 36.07C190.99 37.2409 191.939 38.19 193.11 38.19Z" fill="#918C88"/>
<path d="M4.23999 53.05C4.23999 54.22 3.29 55.17 2.12 55.17C0.949995 55.17 0 54.22 0 53.05C0 51.88 0.949995 50.9301 2.12 50.9301C3.29 50.9301 4.23999 51.88 4.23999 53.05Z" fill="#918C88"/>
<path d="M23.34 53.05C23.34 54.22 22.39 55.17 21.22 55.17C20.05 55.17 19.1 54.22 19.1 53.05C19.1 51.88 20.05 50.9301 21.22 50.9301C22.39 50.9301 23.34 51.88 23.34 53.05Z" fill="#918C88"/>
<path d="M42.44 53.05C42.44 54.22 41.49 55.17 40.32 55.17C39.15 55.17 38.2 54.22 38.2 53.05C38.2 51.88 39.15 50.9301 40.32 50.9301C41.49 50.9301 42.44 51.88 42.44 53.05Z" fill="#918C88"/>
<path d="M61.54 53.05C61.54 54.22 60.59 55.17 59.42 55.17C58.25 55.17 57.3 54.22 57.3 53.05C57.3 51.88 58.25 50.9301 59.42 50.9301C60.59 50.9301 61.54 51.88 61.54 53.05Z" fill="#918C88"/>
<path d="M80.64 53.05C80.64 54.22 79.69 55.17 78.52 55.17C77.35 55.17 76.4 54.22 76.4 53.05C76.4 51.88 77.35 50.9301 78.52 50.9301C79.69 50.9301 80.64 51.88 80.64 53.05Z" fill="#918C88"/>
<path d="M99.74 53.05C99.74 54.22 98.79 55.17 97.62 55.17C96.45 55.17 95.5 54.22 95.5 53.05C95.5 51.88 96.45 50.9301 97.62 50.9301C98.78 50.9301 99.74 51.88 99.74 53.05Z" fill="#918C88"/>
<path d="M118.83 53.05C118.83 54.22 117.88 55.17 116.71 55.17C115.54 55.17 114.59 54.22 114.59 53.05C114.59 51.88 115.54 50.9301 116.71 50.9301C117.88 50.9301 118.83 51.88 118.83 53.05Z" fill="#918C88"/>
<path d="M137.93 53.05C137.93 54.22 136.98 55.17 135.81 55.17C134.64 55.17 133.69 54.22 133.69 53.05C133.69 51.88 134.64 50.9301 135.81 50.9301C136.98 50.9301 137.93 51.88 137.93 53.05Z" fill="#918C88"/>
<path d="M157.03 53.05C157.03 54.22 156.08 55.17 154.91 55.17C153.74 55.17 152.79 54.22 152.79 53.05C152.79 51.88 153.74 50.9301 154.91 50.9301C156.08 50.9301 157.03 51.88 157.03 53.05Z" fill="#918C88"/>
<path d="M176.13 53.05C176.13 54.22 175.18 55.17 174.01 55.17C172.84 55.17 171.89 54.22 171.89 53.05C171.89 51.88 172.84 50.9301 174.01 50.9301C175.18 50.9301 176.13 51.88 176.13 53.05Z" fill="#918C88"/>
<path d="M195.23 53.05C195.23 54.22 194.28 55.17 193.11 55.17C191.94 55.17 190.99 54.22 190.99 53.05C190.99 51.88 191.94 50.9301 193.11 50.9301C194.28 50.9301 195.23 51.88 195.23 53.05Z" fill="#918C88"/>
<path d="M4.23999 70.03C4.23999 71.2 3.29 72.15 2.12 72.15C0.949995 72.15 0 71.2 0 70.03C0 68.86 0.949995 67.91 2.12 67.91C3.29 67.9 4.23999 68.85 4.23999 70.03Z" fill="#918C88"/>
<path d="M23.34 70.03C23.34 71.2 22.39 72.15 21.22 72.15C20.05 72.15 19.1 71.2 19.1 70.03C19.1 68.86 20.05 67.91 21.22 67.91C22.39 67.9 23.34 68.85 23.34 70.03Z" fill="#918C88"/>
<path d="M42.44 70.03C42.44 71.2 41.49 72.15 40.32 72.15C39.15 72.15 38.2 71.2 38.2 70.03C38.2 68.86 39.15 67.91 40.32 67.91C41.49 67.9 42.44 68.85 42.44 70.03Z" fill="#918C88"/>
<path d="M61.54 70.03C61.54 71.2 60.59 72.15 59.42 72.15C58.25 72.15 57.3 71.2 57.3 70.03C57.3 68.86 58.25 67.91 59.42 67.91C60.59 67.9 61.54 68.85 61.54 70.03Z" fill="#918C88"/>
<path d="M80.64 70.03C80.64 71.2 79.69 72.15 78.52 72.15C77.35 72.15 76.4 71.2 76.4 70.03C76.4 68.86 77.35 67.91 78.52 67.91C79.69 67.9 80.64 68.85 80.64 70.03Z" fill="#918C88"/>
<path d="M99.74 70.03C99.74 71.2 98.79 72.15 97.62 72.15C96.45 72.15 95.5 71.2 95.5 70.03C95.5 68.86 96.45 67.91 97.62 67.91C98.78 67.9 99.74 68.85 99.74 70.03Z" fill="#918C88"/>
<path d="M118.83 70.03C118.83 71.2 117.88 72.15 116.71 72.15C115.54 72.15 114.59 71.2 114.59 70.03C114.59 68.86 115.54 67.91 116.71 67.91C117.88 67.9 118.83 68.85 118.83 70.03Z" fill="#918C88"/>
<path d="M137.93 70.0299C137.93 71.1999 136.98 72.1499 135.81 72.1499C134.64 72.1499 133.69 71.1999 133.69 70.0299C133.69 68.8599 134.64 67.9099 135.81 67.9099C136.98 67.9099 137.93 68.8499 137.93 70.0299Z" fill="#918C88"/>
<path d="M157.03 70.03C157.03 71.2 156.08 72.15 154.91 72.15C153.74 72.15 152.79 71.2 152.79 70.03C152.79 68.86 153.74 67.91 154.91 67.91C156.08 67.9 157.03 68.85 157.03 70.03Z" fill="#918C88"/>
<path d="M176.13 70.03C176.13 71.2 175.18 72.15 174.01 72.15C172.84 72.15 171.89 71.2 171.89 70.03C171.89 68.86 172.84 67.91 174.01 67.91C175.18 67.9 176.13 68.85 176.13 70.03Z" fill="#918C88"/>
<path d="M195.23 70.03C195.23 71.2 194.28 72.15 193.11 72.15C191.94 72.15 190.99 71.2 190.99 70.03C190.99 68.86 191.94 67.91 193.11 67.91C194.28 67.9 195.23 68.85 195.23 70.03Z" fill="#918C88"/>
<path d="M2.12 89.12C3.29084 89.12 4.23999 88.1708 4.23999 87C4.23999 85.8292 3.29084 84.88 2.12 84.88C0.949151 84.88 0 85.8292 0 87C0 88.1708 0.949151 89.12 2.12 89.12Z" fill="#918C88"/>
<path d="M21.22 89.12C22.3909 89.12 23.34 88.1708 23.34 87C23.34 85.8292 22.3909 84.88 21.22 84.88C20.0492 84.88 19.1 85.8292 19.1 87C19.1 88.1708 20.0492 89.12 21.22 89.12Z" fill="#918C88"/>
<path d="M40.32 89.12C41.4909 89.12 42.44 88.1708 42.44 87C42.44 85.8292 41.4909 84.88 40.32 84.88C39.1492 84.88 38.2 85.8292 38.2 87C38.2 88.1708 39.1492 89.12 40.32 89.12Z" fill="#918C88"/>
<path d="M59.42 89.12C60.5909 89.12 61.54 88.1708 61.54 87C61.54 85.8292 60.5909 84.88 59.42 84.88C58.2492 84.88 57.3 85.8292 57.3 87C57.3 88.1708 58.2492 89.12 59.42 89.12Z" fill="#918C88"/>
<path d="M80.64 87C80.64 88.17 79.69 89.12 78.52 89.12C77.35 89.12 76.4 88.17 76.4 87C76.4 85.83 77.35 84.88 78.52 84.88C79.69 84.88 80.64 85.83 80.64 87Z" fill="#918C88"/>
<path d="M97.61 89.12C98.7808 89.12 99.73 88.1708 99.73 87C99.73 85.8292 98.7808 84.88 97.61 84.88C96.4391 84.88 95.49 85.8292 95.49 87C95.49 88.1708 96.4391 89.12 97.61 89.12Z" fill="#918C88"/>
<path d="M116.71 89.12C117.881 89.12 118.83 88.1708 118.83 87C118.83 85.8292 117.881 84.88 116.71 84.88C115.539 84.88 114.59 85.8292 114.59 87C114.59 88.1708 115.539 89.12 116.71 89.12Z" fill="#918C88"/>
<path d="M135.81 89.12C136.981 89.12 137.93 88.1708 137.93 87C137.93 85.8292 136.981 84.88 135.81 84.88C134.639 84.88 133.69 85.8292 133.69 87C133.69 88.1708 134.639 89.12 135.81 89.12Z" fill="#918C88"/>
<path d="M154.91 89.12C156.081 89.12 157.03 88.1708 157.03 87C157.03 85.8292 156.081 84.88 154.91 84.88C153.739 84.88 152.79 85.8292 152.79 87C152.79 88.1708 153.739 89.12 154.91 89.12Z" fill="#918C88"/>
<path d="M174.01 89.12C175.181 89.12 176.13 88.1708 176.13 87C176.13 85.8292 175.181 84.88 174.01 84.88C172.839 84.88 171.89 85.8292 171.89 87C171.89 88.1708 172.839 89.12 174.01 89.12Z" fill="#918C88"/>
<path d="M193.11 89.12C194.281 89.12 195.23 88.1708 195.23 87C195.23 85.8292 194.281 84.88 193.11 84.88C191.939 84.88 190.99 85.8292 190.99 87C190.99 88.1708 191.939 89.12 193.11 89.12Z" fill="#918C88"/>
<path d="M2.12 106.1C3.29084 106.1 4.23999 105.151 4.23999 103.98C4.23999 102.809 3.29084 101.86 2.12 101.86C0.949151 101.86 0 102.809 0 103.98C0 105.151 0.949151 106.1 2.12 106.1Z" fill="#918C88"/>
<path d="M21.22 106.1C22.3909 106.1 23.34 105.151 23.34 103.98C23.34 102.809 22.3909 101.86 21.22 101.86C20.0492 101.86 19.1 102.809 19.1 103.98C19.1 105.151 20.0492 106.1 21.22 106.1Z" fill="#918C88"/>
<path d="M40.32 106.1C41.4909 106.1 42.44 105.151 42.44 103.98C42.44 102.809 41.4909 101.86 40.32 101.86C39.1492 101.86 38.2 102.809 38.2 103.98C38.2 105.151 39.1492 106.1 40.32 106.1Z" fill="#918C88"/>
<path d="M59.42 106.1C60.5909 106.1 61.54 105.151 61.54 103.98C61.54 102.809 60.5909 101.86 59.42 101.86C58.2492 101.86 57.3 102.809 57.3 103.98C57.3 105.151 58.2492 106.1 59.42 106.1Z" fill="#918C88"/>
<path d="M80.64 103.98C80.64 105.15 79.69 106.1 78.52 106.1C77.35 106.1 76.4 105.15 76.4 103.98C76.4 102.81 77.35 101.86 78.52 101.86C79.69 101.86 80.64 102.81 80.64 103.98Z" fill="#918C88"/>
<path d="M97.61 106.1C98.7808 106.1 99.73 105.151 99.73 103.98C99.73 102.809 98.7808 101.86 97.61 101.86C96.4391 101.86 95.49 102.809 95.49 103.98C95.49 105.151 96.4391 106.1 97.61 106.1Z" fill="#918C88"/>
<path d="M116.71 106.1C117.881 106.1 118.83 105.151 118.83 103.98C118.83 102.809 117.881 101.86 116.71 101.86C115.539 101.86 114.59 102.809 114.59 103.98C114.59 105.151 115.539 106.1 116.71 106.1Z" fill="#918C88"/>
<path d="M135.81 106.1C136.981 106.1 137.93 105.151 137.93 103.98C137.93 102.809 136.981 101.86 135.81 101.86C134.639 101.86 133.69 102.809 133.69 103.98C133.69 105.151 134.639 106.1 135.81 106.1Z" fill="#918C88"/>
<path d="M154.91 106.1C156.081 106.1 157.03 105.151 157.03 103.98C157.03 102.809 156.081 101.86 154.91 101.86C153.739 101.86 152.79 102.809 152.79 103.98C152.79 105.151 153.739 106.1 154.91 106.1Z" fill="#918C88"/>
<path d="M174.01 106.1C175.181 106.1 176.13 105.151 176.13 103.98C176.13 102.809 175.181 101.86 174.01 101.86C172.839 101.86 171.89 102.809 171.89 103.98C171.89 105.151 172.839 106.1 174.01 106.1Z" fill="#918C88"/>
<path d="M193.11 106.1C194.281 106.1 195.23 105.151 195.23 103.98C195.23 102.809 194.281 101.86 193.11 101.86C191.939 101.86 190.99 102.809 190.99 103.98C190.99 105.151 191.939 106.1 193.11 106.1Z" fill="#918C88"/>
<path d="M4.23999 120.96C4.23999 122.13 3.29 123.08 2.12 123.08C0.949995 123.08 0 122.13 0 120.96C0 119.79 0.949995 118.84 2.12 118.84C3.29 118.83 4.23999 119.78 4.23999 120.96Z" fill="#918C88"/>
<path d="M23.34 120.96C23.34 122.13 22.39 123.08 21.22 123.08C20.05 123.08 19.1 122.13 19.1 120.96C19.1 119.79 20.05 118.84 21.22 118.84C22.39 118.83 23.34 119.78 23.34 120.96Z" fill="#918C88"/>
<path d="M42.44 120.96C42.44 122.13 41.49 123.08 40.32 123.08C39.15 123.08 38.2 122.13 38.2 120.96C38.2 119.79 39.15 118.84 40.32 118.84C41.49 118.83 42.44 119.78 42.44 120.96Z" fill="#918C88"/>
<path d="M61.54 120.96C61.54 122.13 60.59 123.08 59.42 123.08C58.25 123.08 57.3 122.13 57.3 120.96C57.3 119.79 58.25 118.84 59.42 118.84C60.59 118.83 61.54 119.78 61.54 120.96Z" fill="#918C88"/>
<path d="M80.64 120.96C80.64 122.13 79.69 123.08 78.52 123.08C77.35 123.08 76.4 122.13 76.4 120.96C76.4 119.79 77.35 118.84 78.52 118.84C79.69 118.83 80.64 119.78 80.64 120.96Z" fill="#918C88"/>
<path d="M99.74 120.96C99.74 122.13 98.79 123.08 97.62 123.08C96.45 123.08 95.5 122.13 95.5 120.96C95.5 119.79 96.45 118.84 97.62 118.84C98.78 118.83 99.74 119.78 99.74 120.96Z" fill="#918C88"/>
<path d="M118.83 120.96C118.83 122.13 117.88 123.08 116.71 123.08C115.54 123.08 114.59 122.13 114.59 120.96C114.59 119.79 115.54 118.84 116.71 118.84C117.88 118.83 118.83 119.78 118.83 120.96Z" fill="#918C88"/>
<path d="M137.93 120.96C137.93 122.13 136.98 123.08 135.81 123.08C134.64 123.08 133.69 122.13 133.69 120.96C133.69 119.79 134.64 118.84 135.81 118.84C136.98 118.84 137.93 119.78 137.93 120.96Z" fill="#918C88"/>
<path d="M157.03 120.96C157.03 122.13 156.08 123.08 154.91 123.08C153.74 123.08 152.79 122.13 152.79 120.96C152.79 119.79 153.74 118.84 154.91 118.84C156.08 118.83 157.03 119.78 157.03 120.96Z" fill="#918C88"/>
<path d="M176.13 120.96C176.13 122.13 175.18 123.08 174.01 123.08C172.84 123.08 171.89 122.13 171.89 120.96C171.89 119.79 172.84 118.84 174.01 118.84C175.18 118.83 176.13 119.78 176.13 120.96Z" fill="#918C88"/>
<path d="M195.23 120.96C195.23 122.13 194.28 123.08 193.11 123.08C191.94 123.08 190.99 122.13 190.99 120.96C190.99 119.79 191.94 118.84 193.11 118.84C194.28 118.83 195.23 119.78 195.23 120.96Z" fill="#918C88"/>
<path d="M4.23999 137.93C4.23999 139.1 3.29 140.05 2.12 140.05C0.949995 140.05 0 139.1 0 137.93C0 136.76 0.949995 135.81 2.12 135.81C3.29 135.81 4.23999 136.76 4.23999 137.93Z" fill="#918C88"/>
<path d="M23.34 137.93C23.34 139.1 22.39 140.05 21.22 140.05C20.05 140.05 19.1 139.1 19.1 137.93C19.1 136.76 20.05 135.81 21.22 135.81C22.39 135.81 23.34 136.76 23.34 137.93Z" fill="#918C88"/>
<path d="M42.44 137.93C42.44 139.1 41.49 140.05 40.32 140.05C39.15 140.05 38.2 139.1 38.2 137.93C38.2 136.76 39.15 135.81 40.32 135.81C41.49 135.81 42.44 136.76 42.44 137.93Z" fill="#918C88"/>
<path d="M61.54 137.93C61.54 139.1 60.59 140.05 59.42 140.05C58.25 140.05 57.3 139.1 57.3 137.93C57.3 136.76 58.25 135.81 59.42 135.81C60.59 135.81 61.54 136.76 61.54 137.93Z" fill="#918C88"/>
<path d="M80.64 137.93C80.64 139.1 79.69 140.05 78.52 140.05C77.35 140.05 76.4 139.1 76.4 137.93C76.4 136.76 77.35 135.81 78.52 135.81C79.69 135.81 80.64 136.76 80.64 137.93Z" fill="#918C88"/>
<path d="M99.74 137.93C99.74 139.1 98.79 140.05 97.62 140.05C96.45 140.05 95.5 139.1 95.5 137.93C95.5 136.76 96.45 135.81 97.62 135.81C98.78 135.81 99.74 136.76 99.74 137.93Z" fill="#918C88"/>
<path d="M118.83 137.93C118.83 139.1 117.88 140.05 116.71 140.05C115.54 140.05 114.59 139.1 114.59 137.93C114.59 136.76 115.54 135.81 116.71 135.81C117.88 135.81 118.83 136.76 118.83 137.93Z" fill="#918C88"/>
<path d="M137.93 137.93C137.93 139.1 136.98 140.05 135.81 140.05C134.64 140.05 133.69 139.1 133.69 137.93C133.69 136.76 134.64 135.81 135.81 135.81C136.98 135.81 137.93 136.76 137.93 137.93Z" fill="#918C88"/>
<path d="M157.03 137.93C157.03 139.1 156.08 140.05 154.91 140.05C153.74 140.05 152.79 139.1 152.79 137.93C152.79 136.76 153.74 135.81 154.91 135.81C156.08 135.81 157.03 136.76 157.03 137.93Z" fill="#918C88"/>
<path d="M176.13 137.93C176.13 139.1 175.18 140.05 174.01 140.05C172.84 140.05 171.89 139.1 171.89 137.93C171.89 136.76 172.84 135.81 174.01 135.81C175.18 135.81 176.13 136.76 176.13 137.93Z" fill="#918C88"/>
<path d="M195.23 137.93C195.23 139.1 194.28 140.05 193.11 140.05C191.94 140.05 190.99 139.1 190.99 137.93C190.99 136.76 191.94 135.81 193.11 135.81C194.28 135.81 195.23 136.76 195.23 137.93Z" fill="#918C88"/>
<path d="M2.12 157.03C3.29084 157.03 4.23999 156.081 4.23999 154.91C4.23999 153.739 3.29084 152.79 2.12 152.79C0.949151 152.79 0 153.739 0 154.91C0 156.081 0.949151 157.03 2.12 157.03Z" fill="#918C88"/>
<path d="M21.22 157.03C22.3909 157.03 23.34 156.081 23.34 154.91C23.34 153.739 22.3909 152.79 21.22 152.79C20.0492 152.79 19.1 153.739 19.1 154.91C19.1 156.081 20.0492 157.03 21.22 157.03Z" fill="#918C88"/>
<path d="M40.32 157.03C41.4909 157.03 42.44 156.081 42.44 154.91C42.44 153.739 41.4909 152.79 40.32 152.79C39.1492 152.79 38.2 153.739 38.2 154.91C38.2 156.081 39.1492 157.03 40.32 157.03Z" fill="#918C88"/>
<path d="M59.42 157.03C60.5909 157.03 61.54 156.081 61.54 154.91C61.54 153.739 60.5909 152.79 59.42 152.79C58.2492 152.79 57.3 153.739 57.3 154.91C57.3 156.081 58.2492 157.03 59.42 157.03Z" fill="#918C88"/>
<path d="M80.64 154.91C80.64 156.08 79.69 157.03 78.52 157.03C77.35 157.03 76.4 156.08 76.4 154.91C76.4 153.74 77.35 152.79 78.52 152.79C79.69 152.79 80.64 153.74 80.64 154.91Z" fill="#918C88"/>
<path d="M97.61 157.03C98.7808 157.03 99.73 156.081 99.73 154.91C99.73 153.739 98.7808 152.79 97.61 152.79C96.4391 152.79 95.49 153.739 95.49 154.91C95.49 156.081 96.4391 157.03 97.61 157.03Z" fill="#918C88"/>
<path d="M116.71 157.03C117.881 157.03 118.83 156.081 118.83 154.91C118.83 153.739 117.881 152.79 116.71 152.79C115.539 152.79 114.59 153.739 114.59 154.91C114.59 156.081 115.539 157.03 116.71 157.03Z" fill="#918C88"/>
<path d="M135.81 157.03C136.981 157.03 137.93 156.081 137.93 154.91C137.93 153.739 136.981 152.79 135.81 152.79C134.639 152.79 133.69 153.739 133.69 154.91C133.69 156.081 134.639 157.03 135.81 157.03Z" fill="#918C88"/>
<path d="M154.91 157.03C156.081 157.03 157.03 156.081 157.03 154.91C157.03 153.739 156.081 152.79 154.91 152.79C153.739 152.79 152.79 153.739 152.79 154.91C152.79 156.081 153.739 157.03 154.91 157.03Z" fill="#918C88"/>
<path d="M174.01 157.03C175.181 157.03 176.13 156.081 176.13 154.91C176.13 153.739 175.181 152.79 174.01 152.79C172.839 152.79 171.89 153.739 171.89 154.91C171.89 156.081 172.839 157.03 174.01 157.03Z" fill="#918C88"/>
<path d="M193.11 157.03C194.281 157.03 195.23 156.081 195.23 154.91C195.23 153.739 194.281 152.79 193.11 152.79C191.939 152.79 190.99 153.739 190.99 154.91C190.99 156.081 191.939 157.03 193.11 157.03Z" fill="#918C88"/>
<path d="M2.12 174.01C3.29084 174.01 4.23999 173.061 4.23999 171.89C4.23999 170.719 3.29084 169.77 2.12 169.77C0.949151 169.77 0 170.719 0 171.89C0 173.061 0.949151 174.01 2.12 174.01Z" fill="#918C88"/>
<path d="M21.22 174.01C22.3909 174.01 23.34 173.061 23.34 171.89C23.34 170.719 22.3909 169.77 21.22 169.77C20.0492 169.77 19.1 170.719 19.1 171.89C19.1 173.061 20.0492 174.01 21.22 174.01Z" fill="#918C88"/>
<path d="M40.32 174.01C41.4909 174.01 42.44 173.061 42.44 171.89C42.44 170.719 41.4909 169.77 40.32 169.77C39.1492 169.77 38.2 170.719 38.2 171.89C38.2 173.061 39.1492 174.01 40.32 174.01Z" fill="#918C88"/>
<path d="M59.42 174.01C60.5909 174.01 61.54 173.061 61.54 171.89C61.54 170.719 60.5909 169.77 59.42 169.77C58.2492 169.77 57.3 170.719 57.3 171.89C57.3 173.061 58.2492 174.01 59.42 174.01Z" fill="#918C88"/>
<path d="M80.64 171.89C80.64 173.06 79.69 174.01 78.52 174.01C77.35 174.01 76.4 173.06 76.4 171.89C76.4 170.72 77.35 169.77 78.52 169.77C79.69 169.76 80.64 170.71 80.64 171.89Z" fill="#918C88"/>
<path d="M97.61 174.01C98.7808 174.01 99.73 173.061 99.73 171.89C99.73 170.719 98.7808 169.77 97.61 169.77C96.4391 169.77 95.49 170.719 95.49 171.89C95.49 173.061 96.4391 174.01 97.61 174.01Z" fill="#918C88"/>
<path d="M116.71 174.01C117.881 174.01 118.83 173.061 118.83 171.89C118.83 170.719 117.881 169.77 116.71 169.77C115.539 169.77 114.59 170.719 114.59 171.89C114.59 173.061 115.539 174.01 116.71 174.01Z" fill="#918C88"/>
<path d="M135.81 174.01C136.981 174.01 137.93 173.061 137.93 171.89C137.93 170.719 136.981 169.77 135.81 169.77C134.639 169.77 133.69 170.719 133.69 171.89C133.69 173.061 134.639 174.01 135.81 174.01Z" fill="#918C88"/>
<path d="M154.91 174.01C156.081 174.01 157.03 173.061 157.03 171.89C157.03 170.719 156.081 169.77 154.91 169.77C153.739 169.77 152.79 170.719 152.79 171.89C152.79 173.061 153.739 174.01 154.91 174.01Z" fill="#918C88"/>
<path d="M174.01 174.01C175.181 174.01 176.13 173.061 176.13 171.89C176.13 170.719 175.181 169.77 174.01 169.77C172.839 169.77 171.89 170.719 171.89 171.89C171.89 173.061 172.839 174.01 174.01 174.01Z" fill="#918C88"/>
<path d="M193.11 174.01C194.281 174.01 195.23 173.061 195.23 171.89C195.23 170.719 194.281 169.77 193.11 169.77C191.939 169.77 190.99 170.719 190.99 171.89C190.99 173.061 191.939 174.01 193.11 174.01Z" fill="#918C88"/>
<path d="M4.23999 188.86C4.23999 190.03 3.29 190.98 2.12 190.98C0.949995 190.98 0 190.03 0 188.86C0 187.69 0.949995 186.74 2.12 186.74C3.29 186.74 4.23999 187.69 4.23999 188.86Z" fill="#918C88"/>
<path d="M23.34 188.86C23.34 190.03 22.39 190.98 21.22 190.98C20.05 190.98 19.1 190.03 19.1 188.86C19.1 187.69 20.05 186.74 21.22 186.74C22.39 186.74 23.34 187.69 23.34 188.86Z" fill="#918C88"/>
<path d="M42.44 188.86C42.44 190.03 41.49 190.98 40.32 190.98C39.15 190.98 38.2 190.03 38.2 188.86C38.2 187.69 39.15 186.74 40.32 186.74C41.49 186.74 42.44 187.69 42.44 188.86Z" fill="#918C88"/>
<path d="M61.54 188.86C61.54 190.03 60.59 190.98 59.42 190.98C58.25 190.98 57.3 190.03 57.3 188.86C57.3 187.69 58.25 186.74 59.42 186.74C60.59 186.74 61.54 187.69 61.54 188.86Z" fill="#918C88"/>
<path d="M80.64 188.86C80.64 190.03 79.69 190.98 78.52 190.98C77.35 190.98 76.4 190.03 76.4 188.86C76.4 187.69 77.35 186.74 78.52 186.74C79.69 186.74 80.64 187.69 80.64 188.86Z" fill="#918C88"/>
<path d="M99.74 188.86C99.74 190.03 98.79 190.98 97.62 190.98C96.45 190.98 95.5 190.03 95.5 188.86C95.5 187.69 96.45 186.74 97.62 186.74C98.78 186.74 99.74 187.69 99.74 188.86Z" fill="#918C88"/>
<path d="M118.83 188.86C118.83 190.03 117.88 190.98 116.71 190.98C115.54 190.98 114.59 190.03 114.59 188.86C114.59 187.69 115.54 186.74 116.71 186.74C117.88 186.74 118.83 187.69 118.83 188.86Z" fill="#918C88"/>
<path d="M137.93 188.86C137.93 190.03 136.98 190.98 135.81 190.98C134.64 190.98 133.69 190.03 133.69 188.86C133.69 187.69 134.64 186.74 135.81 186.74C136.98 186.74 137.93 187.69 137.93 188.86Z" fill="#918C88"/>
<path d="M157.03 188.86C157.03 190.03 156.08 190.98 154.91 190.98C153.74 190.98 152.79 190.03 152.79 188.86C152.79 187.69 153.74 186.74 154.91 186.74C156.08 186.74 157.03 187.69 157.03 188.86Z" fill="#918C88"/>
<path d="M176.13 188.86C176.13 190.03 175.18 190.98 174.01 190.98C172.84 190.98 171.89 190.03 171.89 188.86C171.89 187.69 172.84 186.74 174.01 186.74C175.18 186.74 176.13 187.69 176.13 188.86Z" fill="#918C88"/>
<path d="M195.23 188.86C195.23 190.03 194.28 190.98 193.11 190.98C191.94 190.98 190.99 190.03 190.99 188.86C190.99 187.69 191.94 186.74 193.11 186.74C194.28 186.74 195.23 187.69 195.23 188.86Z" fill="#918C88"/>
</g>
</svg>
