<svg width="80" height="80" viewBox="0 0 80 80" fill="none" xmlns="http://www.w3.org/2000/svg">
<circle cx="40" cy="40" r="40" fill="url(#paint0_linear_222_1826)"/>
<path d="M47.125 27.34V25C47.125 24.385 46.615 23.875 46 23.875C45.385 23.875 44.875 24.385 44.875 25V27.25H35.125V25C35.125 24.385 34.615 23.875 34 23.875C33.385 23.875 32.875 24.385 32.875 25V27.34C28.825 27.715 26.86 30.13 26.56 33.715C26.53 34.15 26.89 34.51 27.31 34.51H52.69C53.125 34.51 53.485 34.135 53.44 33.715C53.14 30.13 51.175 27.715 47.125 27.34Z" fill="white"/>
<path opacity="0.4" d="M52 36.76C52.825 36.76 53.5 37.435 53.5 38.26V47.5C53.5 52 51.25 55 46 55H34C28.75 55 26.5 52 26.5 47.5V38.26C26.5 37.435 27.175 36.76 28 36.76H52Z" fill="white"/>
<path d="M34.75 44.5001C34.36 44.5001 33.97 44.335 33.685 44.065C33.415 43.78 33.25 43.3901 33.25 43.0001C33.25 42.6101 33.415 42.2201 33.685 41.9351C34.105 41.5151 34.765 41.38 35.32 41.62C35.515 41.695 35.68 41.8001 35.815 41.9351C36.085 42.2201 36.25 42.6101 36.25 43.0001C36.25 43.3901 36.085 43.78 35.815 44.065C35.53 44.335 35.14 44.5001 34.75 44.5001Z" fill="white"/>
<path d="M40 44.5001C39.61 44.5001 39.22 44.335 38.935 44.065C38.665 43.78 38.5 43.3901 38.5 43.0001C38.5 42.6101 38.665 42.2201 38.935 41.9351C39.07 41.8001 39.235 41.695 39.43 41.62C39.985 41.38 40.645 41.5151 41.065 41.9351C41.335 42.2201 41.5 42.6101 41.5 43.0001C41.5 43.3901 41.335 43.78 41.065 44.065C40.99 44.125 40.915 44.185 40.84 44.245C40.75 44.305 40.66 44.3501 40.57 44.3801C40.48 44.4251 40.39 44.4551 40.3 44.4701C40.195 44.4851 40.105 44.5001 40 44.5001Z" fill="white"/>
<path d="M45.25 44.5C44.86 44.5 44.47 44.335 44.185 44.065C43.915 43.78 43.75 43.39 43.75 43C43.75 42.61 43.915 42.22 44.185 41.935C44.335 41.8 44.485 41.695 44.68 41.62C44.95 41.5 45.25 41.47 45.55 41.53C45.64 41.545 45.73 41.575 45.82 41.62C45.91 41.65 46 41.695 46.09 41.755C46.165 41.815 46.24 41.875 46.315 41.935C46.585 42.22 46.75 42.61 46.75 43C46.75 43.39 46.585 43.78 46.315 44.065C46.24 44.125 46.165 44.185 46.09 44.245C46 44.305 45.91 44.35 45.82 44.38C45.73 44.425 45.64 44.455 45.55 44.47C45.445 44.485 45.34 44.5 45.25 44.5Z" fill="white"/>
<path d="M34.75 49.75C34.555 49.75 34.36 49.705 34.18 49.63C33.985 49.555 33.835 49.45 33.685 49.315C33.415 49.03 33.25 48.64 33.25 48.25C33.25 47.86 33.415 47.47 33.685 47.185C33.835 47.05 33.985 46.945 34.18 46.87C34.45 46.75 34.75 46.72 35.05 46.78C35.14 46.795 35.23 46.825 35.32 46.87C35.41 46.9 35.5 46.945 35.59 47.005C35.665 47.065 35.74 47.125 35.815 47.185C36.085 47.47 36.25 47.86 36.25 48.25C36.25 48.64 36.085 49.03 35.815 49.315C35.74 49.375 35.665 49.45 35.59 49.495C35.5 49.555 35.41 49.6 35.32 49.63C35.23 49.675 35.14 49.705 35.05 49.72C34.945 49.735 34.855 49.75 34.75 49.75Z" fill="white"/>
<path d="M40 49.75C39.61 49.75 39.22 49.585 38.935 49.315C38.665 49.03 38.5 48.64 38.5 48.25C38.5 47.86 38.665 47.47 38.935 47.185C39.49 46.63 40.51 46.63 41.065 47.185C41.335 47.47 41.5 47.86 41.5 48.25C41.5 48.64 41.335 49.03 41.065 49.315C40.78 49.585 40.39 49.75 40 49.75Z" fill="white"/>
<path d="M45.25 49.75C44.86 49.75 44.47 49.585 44.185 49.315C43.915 49.03 43.75 48.64 43.75 48.25C43.75 47.86 43.915 47.47 44.185 47.185C44.74 46.63 45.76 46.63 46.315 47.185C46.585 47.47 46.75 47.86 46.75 48.25C46.75 48.64 46.585 49.03 46.315 49.315C46.03 49.585 45.64 49.75 45.25 49.75Z" fill="white"/>
<defs>
<linearGradient id="paint0_linear_222_1826" x1="40" y1="0" x2="40" y2="80" gradientUnits="userSpaceOnUse">
<stop stop-color="#4CBDC4"/>
<stop offset="1" stop-color="#3C4BD3"/>
</linearGradient>
</defs>
</svg>
