<svg width="51" height="9" viewBox="0 0 51 9" fill="none" xmlns="http://www.w3.org/2000/svg">
<g opacity="0.43">
<path d="M0.630247 4.10568C0.434986 4.30094 0.434986 4.61752 0.630247 4.81278L3.81223 7.99476C4.00749 8.19002 4.32407 8.19002 4.51933 7.99476C4.7146 7.7995 4.7146 7.48292 4.51933 7.28766L1.69091 4.45923L4.51933 1.6308C4.7146 1.43554 4.7146 1.11896 4.51933 0.923695C4.32407 0.728432 4.00749 0.728432 3.81223 0.923695L0.630247 4.10568ZM22.9766 3.95923L0.983801 3.95923V4.95923L22.9766 4.95923V3.95923Z" fill="#1D1610"/>
</g>
<g opacity="0.43">
<path d="M50.3287 4.10568C50.524 4.30094 50.524 4.61752 50.3287 4.81278L47.1467 7.99476C46.9515 8.19002 46.6349 8.19002 46.4396 7.99476C46.2444 7.7995 46.2444 7.48292 46.4396 7.28766L49.268 4.45923L46.4396 1.6308C46.2444 1.43554 46.2444 1.11896 46.4396 0.923695C46.6349 0.728432 46.9515 0.728432 47.1467 0.923695L50.3287 4.10568ZM27.9824 3.95923L49.9752 3.95923V4.95923L27.9824 4.95923V3.95923Z" fill="#1D1610"/>
</g>
</svg>
