<svg width="34" height="26" viewBox="0 0 34 26" fill="none" xmlns="http://www.w3.org/2000/svg">
<path opacity="0.7" d="M33.9391 9.47549C33.9391 9.54051 33.9391 9.60553 33.9391 9.67055C33.9391 9.73557 33.9391 9.80059 33.9391 9.86561C33.9391 11.036 33.8397 12.1738 33.641 13.2791C33.4422 14.3519 33.1606 15.4085 32.7962 16.4488L32.8459 16.3025C32.4815 17.2128 32.0674 18.0743 31.6036 18.887C31.1398 19.6673 30.6264 20.415 30.0632 21.1302V21.0814C29.2019 22.1217 28.2081 23.0483 27.0817 23.861C25.9885 24.6412 24.7959 25.2752 23.504 25.7628H23.4046L20.5225 21.179C21.3507 20.7563 22.1126 20.2687 22.8083 19.716C23.504 19.1634 24.1334 18.5294 24.6965 17.8142C25.1603 17.1965 25.5082 16.5301 25.7401 15.8149C26.0051 15.0672 26.1376 14.2869 26.1376 13.4742C26.1376 13.3441 26.1376 13.2141 26.1376 13.0841C26.1376 12.954 26.121 12.824 26.0879 12.6939C25.9223 12.759 25.7235 12.8077 25.4916 12.8402C25.2928 12.8728 25.0775 12.889 24.8456 12.889C24.2162 12.889 23.6199 12.7752 23.0567 12.5477C22.5267 12.2876 22.0629 11.9625 21.6654 11.5724C21.1353 10.9872 20.7212 10.3207 20.4231 9.57302C20.125 8.8253 19.9759 8.02881 19.9759 7.18356C19.9759 7.11854 19.9759 7.05352 19.9759 6.9885C19.9759 6.92348 19.9759 6.85846 19.9759 6.79344V6.84221C19.9759 6.77719 19.9759 6.72842 19.9759 6.69591C19.9759 6.6634 19.9759 6.61464 19.9759 6.54962C19.9759 5.73688 20.1415 4.9729 20.4728 4.25769C20.8041 3.54248 21.2513 2.94105 21.8145 2.4534C22.3776 1.93325 23.0402 1.52688 23.8021 1.23429C24.564 0.941704 25.3591 0.79541 26.1873 0.79541C26.2204 0.79541 26.2535 0.79541 26.2867 0.79541C26.3529 0.79541 26.4026 0.79541 26.4357 0.79541C26.4689 0.79541 26.5186 0.79541 26.5848 0.79541C26.6511 0.79541 26.7008 0.79541 26.7339 0.79541C27.7608 0.79541 28.7215 0.990468 29.616 1.38058C30.5104 1.7707 31.2724 2.30711 31.9018 2.98981C32.5643 3.80255 33.0778 4.69657 33.4422 5.67186C33.8066 6.64715 33.9888 7.68746 33.9888 8.79279C33.9888 8.92283 33.9888 9.05287 33.9888 9.1829C33.9888 9.28043 33.9722 9.39422 33.9391 9.52425V9.47549ZM6.50955 0.79541C6.4433 0.79541 6.39361 0.79541 6.36048 0.79541C6.32735 0.79541 6.29422 0.79541 6.2611 0.79541C5.39978 0.79541 4.58816 0.941704 3.82623 1.23429C3.09742 1.52688 2.43487 1.93325 1.83858 2.4534C1.27541 2.94105 0.828187 3.54248 0.496912 4.25769C0.198765 4.9729 0.0496912 5.73688 0.0496912 6.54962C0.0496912 6.61464 0.0496912 6.6634 0.0496912 6.69591C0.0496912 6.72842 0.0496912 6.77719 0.0496912 6.84221C0.0496912 6.87472 0.0331275 6.92348 0 6.9885C0 7.05352 0 7.11854 0 7.18356C0 8.02881 0.149074 8.8253 0.447221 9.57302C0.778496 10.3207 1.19259 10.9872 1.6895 11.5724C2.08703 11.9625 2.56738 12.2876 3.13055 12.5477C3.69372 12.7752 4.29001 12.889 4.91943 12.889C5.15133 12.889 5.36665 12.8728 5.56542 12.8402C5.79731 12.8077 6.01264 12.759 6.21141 12.6939H6.16171C6.16171 12.824 6.16171 12.954 6.16171 13.0841C6.19484 13.2141 6.21141 13.3604 6.21141 13.5229C6.21141 14.3032 6.0789 15.0672 5.81388 15.8149C5.54886 16.5626 5.20102 17.229 4.77036 17.8142C4.20719 18.4969 3.57777 19.1309 2.88209 19.716C2.18641 20.2687 1.44105 20.7401 0.645986 21.1302L0.546604 21.179L3.47839 25.7628C4.10781 25.5353 4.68754 25.2914 5.21758 25.0314C5.74762 24.7713 6.2611 24.4624 6.75801 24.1048L6.70832 24.1536C7.37087 23.731 7.98373 23.2758 8.54689 22.7882C9.11006 22.268 9.6401 21.7154 10.137 21.1302V21.0814C10.7002 20.3987 11.2137 19.6673 11.6774 18.887C12.1412 18.1068 12.5388 17.2778 12.87 16.4V16.3025C13.2344 15.3597 13.516 14.3519 13.7148 13.2791C13.9135 12.1738 14.0129 11.0522 14.0129 9.91437C14.0129 9.81684 14.0129 9.73557 14.0129 9.67055C14.0129 9.60553 14.0129 9.54051 14.0129 9.47549C14.0129 9.37796 14.0129 9.28043 14.0129 9.1829C14.0461 9.05287 14.0626 8.92283 14.0626 8.79279C14.0626 7.68746 13.8639 6.64715 13.4663 5.67186C13.1019 4.69657 12.605 3.80255 11.9756 2.98981C11.313 2.33962 10.5345 1.81946 9.6401 1.42935C8.77879 1.00672 7.83465 0.79541 6.8077 0.79541C6.74145 0.79541 6.67519 0.79541 6.60894 0.79541C6.57581 0.79541 6.52612 0.79541 6.45986 0.79541H6.50955Z" fill="#FF992E"/>
</svg>
