<svg width="196" height="191" viewBox="0 0 196 191" fill="none" xmlns="http://www.w3.org/2000/svg">
<g opacity="0.4">
<path d="M2.12 4.53731C3.29084 4.53731 4.23999 3.58954 4.23999 2.42044C4.23999 1.25133 3.29084 0.303589 2.12 0.303589C0.949151 0.303589 0 1.25133 0 2.42044C0 3.58954 0.949151 4.53731 2.12 4.53731Z" fill="#918C88"/>
<path d="M21.22 4.53731C22.3909 4.53731 23.34 3.58954 23.34 2.42044C23.34 1.25133 22.3909 0.303589 21.22 0.303589C20.0492 0.303589 19.1 1.25133 19.1 2.42044C19.1 3.58954 20.0492 4.53731 21.22 4.53731Z" fill="#918C88"/>
<path d="M40.32 4.53731C41.4909 4.53731 42.44 3.58954 42.44 2.42044C42.44 1.25133 41.4909 0.303589 40.32 0.303589C39.1492 0.303589 38.2 1.25133 38.2 2.42044C38.2 3.58954 39.1492 4.53731 40.32 4.53731Z" fill="#918C88"/>
<path d="M59.42 4.53731C60.5909 4.53731 61.54 3.58954 61.54 2.42044C61.54 1.25133 60.5909 0.303589 59.42 0.303589C58.2492 0.303589 57.3 1.25133 57.3 2.42044C57.3 3.58954 58.2492 4.53731 59.42 4.53731Z" fill="#918C88"/>
<path d="M80.64 2.42044C80.64 3.5887 79.69 4.53731 78.52 4.53731C77.35 4.53731 76.4 3.5887 76.4 2.42044C76.4 1.25217 77.35 0.303589 78.52 0.303589C79.69 0.303589 80.64 1.25217 80.64 2.42044Z" fill="#918C88"/>
<path d="M97.61 4.53731C98.7808 4.53731 99.73 3.58954 99.73 2.42044C99.73 1.25133 98.7808 0.303589 97.61 0.303589C96.4391 0.303589 95.49 1.25133 95.49 2.42044C95.49 3.58954 96.4391 4.53731 97.61 4.53731Z" fill="#918C88"/>
<path d="M116.71 4.53731C117.881 4.53731 118.83 3.58954 118.83 2.42044C118.83 1.25133 117.881 0.303589 116.71 0.303589C115.539 0.303589 114.59 1.25133 114.59 2.42044C114.59 3.58954 115.539 4.53731 116.71 4.53731Z" fill="#918C88"/>
<path d="M135.81 4.53731C136.981 4.53731 137.93 3.58954 137.93 2.42044C137.93 1.25133 136.981 0.303589 135.81 0.303589C134.639 0.303589 133.69 1.25133 133.69 2.42044C133.69 3.58954 134.639 4.53731 135.81 4.53731Z" fill="#918C88"/>
<path d="M154.91 4.53731C156.081 4.53731 157.03 3.58954 157.03 2.42044C157.03 1.25133 156.081 0.303589 154.91 0.303589C153.739 0.303589 152.79 1.25133 152.79 2.42044C152.79 3.58954 153.739 4.53731 154.91 4.53731Z" fill="#918C88"/>
<path d="M174.01 4.53731C175.181 4.53731 176.13 3.58954 176.13 2.42044C176.13 1.25133 175.181 0.303589 174.01 0.303589C172.839 0.303589 171.89 1.25133 171.89 2.42044C171.89 3.58954 172.839 4.53731 174.01 4.53731Z" fill="#918C88"/>
<path d="M193.11 4.53731C194.281 4.53731 195.23 3.58954 195.23 2.42044C195.23 1.25133 194.281 0.303589 193.11 0.303589C191.939 0.303589 190.99 1.25133 190.99 2.42044C190.99 3.58954 191.939 4.53731 193.11 4.53731Z" fill="#918C88"/>
<path d="M2.12 21.4921C3.29084 21.4921 4.23999 20.5443 4.23999 19.3752C4.23999 18.2061 3.29084 17.2584 2.12 17.2584C0.949151 17.2584 0 18.2061 0 19.3752C0 20.5443 0.949151 21.4921 2.12 21.4921Z" fill="#918C88"/>
<path d="M21.22 21.4921C22.3909 21.4921 23.34 20.5443 23.34 19.3752C23.34 18.2061 22.3909 17.2584 21.22 17.2584C20.0492 17.2584 19.1 18.2061 19.1 19.3752C19.1 20.5443 20.0492 21.4921 21.22 21.4921Z" fill="#918C88"/>
<path d="M40.32 21.4921C41.4909 21.4921 42.44 20.5443 42.44 19.3752C42.44 18.2061 41.4909 17.2584 40.32 17.2584C39.1492 17.2584 38.2 18.2061 38.2 19.3752C38.2 20.5443 39.1492 21.4921 40.32 21.4921Z" fill="#918C88"/>
<path d="M59.42 21.4921C60.5909 21.4921 61.54 20.5443 61.54 19.3752C61.54 18.2061 60.5909 17.2584 59.42 17.2584C58.2492 17.2584 57.3 18.2061 57.3 19.3752C57.3 20.5443 58.2492 21.4921 59.42 21.4921Z" fill="#918C88"/>
<path d="M80.64 19.3752C80.64 20.5435 79.69 21.4921 78.52 21.4921C77.35 21.4921 76.4 20.5435 76.4 19.3752C76.4 18.207 77.35 17.2584 78.52 17.2584C79.69 17.2584 80.64 18.207 80.64 19.3752Z" fill="#918C88"/>
<path d="M97.61 21.4921C98.7808 21.4921 99.73 20.5443 99.73 19.3752C99.73 18.2061 98.7808 17.2584 97.61 17.2584C96.4391 17.2584 95.49 18.2061 95.49 19.3752C95.49 20.5443 96.4391 21.4921 97.61 21.4921Z" fill="#918C88"/>
<path d="M116.71 21.4921C117.881 21.4921 118.83 20.5443 118.83 19.3752C118.83 18.2061 117.881 17.2584 116.71 17.2584C115.539 17.2584 114.59 18.2061 114.59 19.3752C114.59 20.5443 115.539 21.4921 116.71 21.4921Z" fill="#918C88"/>
<path d="M135.81 21.4921C136.981 21.4921 137.93 20.5443 137.93 19.3752C137.93 18.2061 136.981 17.2584 135.81 17.2584C134.639 17.2584 133.69 18.2061 133.69 19.3752C133.69 20.5443 134.639 21.4921 135.81 21.4921Z" fill="#918C88"/>
<path d="M154.91 21.4921C156.081 21.4921 157.03 20.5443 157.03 19.3752C157.03 18.2061 156.081 17.2584 154.91 17.2584C153.739 17.2584 152.79 18.2061 152.79 19.3752C152.79 20.5443 153.739 21.4921 154.91 21.4921Z" fill="#918C88"/>
<path d="M174.01 21.4921C175.181 21.4921 176.13 20.5443 176.13 19.3752C176.13 18.2061 175.181 17.2584 174.01 17.2584C172.839 17.2584 171.89 18.2061 171.89 19.3752C171.89 20.5443 172.839 21.4921 174.01 21.4921Z" fill="#918C88"/>
<path d="M193.11 21.4921C194.281 21.4921 195.23 20.5443 195.23 19.3752C195.23 18.2061 194.281 17.2584 193.11 17.2584C191.939 17.2584 190.99 18.2061 190.99 19.3752C190.99 20.5443 191.939 21.4921 193.11 21.4921Z" fill="#918C88"/>
<path d="M2.12 38.4369C3.29084 38.4369 4.23999 37.4892 4.23999 36.3201C4.23999 35.151 3.29084 34.2032 2.12 34.2032C0.949151 34.2032 0 35.151 0 36.3201C0 37.4892 0.949151 38.4369 2.12 38.4369Z" fill="#918C88"/>
<path d="M21.22 38.4369C22.3909 38.4369 23.34 37.4892 23.34 36.3201C23.34 35.151 22.3909 34.2032 21.22 34.2032C20.0492 34.2032 19.1 35.151 19.1 36.3201C19.1 37.4892 20.0492 38.4369 21.22 38.4369Z" fill="#918C88"/>
<path d="M40.32 38.4369C41.4909 38.4369 42.44 37.4892 42.44 36.3201C42.44 35.151 41.4909 34.2032 40.32 34.2032C39.1492 34.2032 38.2 35.151 38.2 36.3201C38.2 37.4892 39.1492 38.4369 40.32 38.4369Z" fill="#918C88"/>
<path d="M59.42 38.4369C60.5909 38.4369 61.54 37.4892 61.54 36.3201C61.54 35.151 60.5909 34.2032 59.42 34.2032C58.2492 34.2032 57.3 35.151 57.3 36.3201C57.3 37.4892 58.2492 38.4369 59.42 38.4369Z" fill="#918C88"/>
<path d="M80.64 36.3201C80.64 37.4883 79.69 38.4369 78.52 38.4369C77.35 38.4369 76.4 37.4883 76.4 36.3201C76.4 35.1518 77.35 34.2032 78.52 34.2032C79.69 34.2032 80.64 35.1518 80.64 36.3201Z" fill="#918C88"/>
<path d="M97.61 38.4369C98.7808 38.4369 99.73 37.4892 99.73 36.3201C99.73 35.151 98.7808 34.2032 97.61 34.2032C96.4391 34.2032 95.49 35.151 95.49 36.3201C95.49 37.4892 96.4391 38.4369 97.61 38.4369Z" fill="#918C88"/>
<path d="M116.71 38.4369C117.881 38.4369 118.83 37.4892 118.83 36.3201C118.83 35.151 117.881 34.2032 116.71 34.2032C115.539 34.2032 114.59 35.151 114.59 36.3201C114.59 37.4892 115.539 38.4369 116.71 38.4369Z" fill="#918C88"/>
<path d="M135.81 38.4369C136.981 38.4369 137.93 37.4892 137.93 36.3201C137.93 35.151 136.981 34.2032 135.81 34.2032C134.639 34.2032 133.69 35.151 133.69 36.3201C133.69 37.4892 134.639 38.4369 135.81 38.4369Z" fill="#918C88"/>
<path d="M154.91 38.4369C156.081 38.4369 157.03 37.4892 157.03 36.3201C157.03 35.151 156.081 34.2032 154.91 34.2032C153.739 34.2032 152.79 35.151 152.79 36.3201C152.79 37.4892 153.739 38.4369 154.91 38.4369Z" fill="#918C88"/>
<path d="M174.01 38.4369C175.181 38.4369 176.13 37.4892 176.13 36.3201C176.13 35.151 175.181 34.2032 174.01 34.2032C172.839 34.2032 171.89 35.151 171.89 36.3201C171.89 37.4892 172.839 38.4369 174.01 38.4369Z" fill="#918C88"/>
<path d="M193.11 38.4369C194.281 38.4369 195.23 37.4892 195.23 36.3201C195.23 35.151 194.281 34.2032 193.11 34.2032C191.939 34.2032 190.99 35.151 190.99 36.3201C190.99 37.4892 191.939 38.4369 193.11 38.4369Z" fill="#918C88"/>
<path d="M4.23999 53.2748C4.23999 54.4431 3.29 55.3917 2.12 55.3917C0.949995 55.3917 0 54.4431 0 53.2748C0 52.1066 0.949995 51.158 2.12 51.158C3.29 51.158 4.23999 52.1066 4.23999 53.2748Z" fill="#918C88"/>
<path d="M23.34 53.2748C23.34 54.4431 22.39 55.3917 21.22 55.3917C20.05 55.3917 19.1 54.4431 19.1 53.2748C19.1 52.1066 20.05 51.158 21.22 51.158C22.39 51.158 23.34 52.1066 23.34 53.2748Z" fill="#918C88"/>
<path d="M42.44 53.2748C42.44 54.4431 41.49 55.3917 40.32 55.3917C39.15 55.3917 38.2 54.4431 38.2 53.2748C38.2 52.1066 39.15 51.158 40.32 51.158C41.49 51.158 42.44 52.1066 42.44 53.2748Z" fill="#918C88"/>
<path d="M61.54 53.2748C61.54 54.4431 60.59 55.3917 59.42 55.3917C58.25 55.3917 57.3 54.4431 57.3 53.2748C57.3 52.1066 58.25 51.158 59.42 51.158C60.59 51.158 61.54 52.1066 61.54 53.2748Z" fill="#918C88"/>
<path d="M80.64 53.2748C80.64 54.4431 79.69 55.3917 78.52 55.3917C77.35 55.3917 76.4 54.4431 76.4 53.2748C76.4 52.1066 77.35 51.158 78.52 51.158C79.69 51.158 80.64 52.1066 80.64 53.2748Z" fill="#918C88"/>
<path d="M99.74 53.2748C99.74 54.4431 98.79 55.3917 97.62 55.3917C96.45 55.3917 95.5 54.4431 95.5 53.2748C95.5 52.1066 96.45 51.158 97.62 51.158C98.78 51.158 99.74 52.1066 99.74 53.2748Z" fill="#918C88"/>
<path d="M118.83 53.2748C118.83 54.4431 117.88 55.3917 116.71 55.3917C115.54 55.3917 114.59 54.4431 114.59 53.2748C114.59 52.1066 115.54 51.158 116.71 51.158C117.88 51.158 118.83 52.1066 118.83 53.2748Z" fill="#918C88"/>
<path d="M137.93 53.2748C137.93 54.4431 136.98 55.3917 135.81 55.3917C134.64 55.3917 133.69 54.4431 133.69 53.2748C133.69 52.1066 134.64 51.158 135.81 51.158C136.98 51.158 137.93 52.1066 137.93 53.2748Z" fill="#918C88"/>
<path d="M157.03 53.2748C157.03 54.4431 156.08 55.3917 154.91 55.3917C153.74 55.3917 152.79 54.4431 152.79 53.2748C152.79 52.1066 153.74 51.158 154.91 51.158C156.08 51.158 157.03 52.1066 157.03 53.2748Z" fill="#918C88"/>
<path d="M176.13 53.2748C176.13 54.4431 175.18 55.3917 174.01 55.3917C172.84 55.3917 171.89 54.4431 171.89 53.2748C171.89 52.1066 172.84 51.158 174.01 51.158C175.18 51.158 176.13 52.1066 176.13 53.2748Z" fill="#918C88"/>
<path d="M195.23 53.2748C195.23 54.4431 194.28 55.3917 193.11 55.3917C191.94 55.3917 190.99 54.4431 190.99 53.2748C190.99 52.1066 191.94 51.158 193.11 51.158C194.28 51.158 195.23 52.1066 195.23 53.2748Z" fill="#918C88"/>
<path d="M4.23999 70.2296C4.23999 71.3979 3.29 72.3465 2.12 72.3465C0.949995 72.3465 0 71.3979 0 70.2296C0 69.0614 0.949995 68.1128 2.12 68.1128C3.29 68.1028 4.23999 69.0514 4.23999 70.2296Z" fill="#918C88"/>
<path d="M23.34 70.2296C23.34 71.3979 22.39 72.3465 21.22 72.3465C20.05 72.3465 19.1 71.3979 19.1 70.2296C19.1 69.0614 20.05 68.1128 21.22 68.1128C22.39 68.1028 23.34 69.0514 23.34 70.2296Z" fill="#918C88"/>
<path d="M42.44 70.2296C42.44 71.3979 41.49 72.3465 40.32 72.3465C39.15 72.3465 38.2 71.3979 38.2 70.2296C38.2 69.0614 39.15 68.1128 40.32 68.1128C41.49 68.1028 42.44 69.0514 42.44 70.2296Z" fill="#918C88"/>
<path d="M61.54 70.2296C61.54 71.3979 60.59 72.3465 59.42 72.3465C58.25 72.3465 57.3 71.3979 57.3 70.2296C57.3 69.0614 58.25 68.1128 59.42 68.1128C60.59 68.1028 61.54 69.0514 61.54 70.2296Z" fill="#918C88"/>
<path d="M80.64 70.2296C80.64 71.3979 79.69 72.3465 78.52 72.3465C77.35 72.3465 76.4 71.3979 76.4 70.2296C76.4 69.0614 77.35 68.1128 78.52 68.1128C79.69 68.1028 80.64 69.0514 80.64 70.2296Z" fill="#918C88"/>
<path d="M99.74 70.2296C99.74 71.3979 98.79 72.3465 97.62 72.3465C96.45 72.3465 95.5 71.3979 95.5 70.2296C95.5 69.0614 96.45 68.1128 97.62 68.1128C98.78 68.1028 99.74 69.0514 99.74 70.2296Z" fill="#918C88"/>
<path d="M118.83 70.2296C118.83 71.3979 117.88 72.3465 116.71 72.3465C115.54 72.3465 114.59 71.3979 114.59 70.2296C114.59 69.0614 115.54 68.1128 116.71 68.1128C117.88 68.1028 118.83 69.0514 118.83 70.2296Z" fill="#918C88"/>
<path d="M137.93 70.2296C137.93 71.3979 136.98 72.3465 135.81 72.3465C134.64 72.3465 133.69 71.3979 133.69 70.2296C133.69 69.0613 134.64 68.1128 135.81 68.1128C136.98 68.1128 137.93 69.0514 137.93 70.2296Z" fill="#918C88"/>
<path d="M157.03 70.2296C157.03 71.3979 156.08 72.3465 154.91 72.3465C153.74 72.3465 152.79 71.3979 152.79 70.2296C152.79 69.0614 153.74 68.1128 154.91 68.1128C156.08 68.1028 157.03 69.0514 157.03 70.2296Z" fill="#918C88"/>
<path d="M176.13 70.2296C176.13 71.3979 175.18 72.3465 174.01 72.3465C172.84 72.3465 171.89 71.3979 171.89 70.2296C171.89 69.0614 172.84 68.1128 174.01 68.1128C175.18 68.1028 176.13 69.0514 176.13 70.2296Z" fill="#918C88"/>
<path d="M195.23 70.2296C195.23 71.3979 194.28 72.3465 193.11 72.3465C191.94 72.3465 190.99 71.3979 190.99 70.2296C190.99 69.0614 191.94 68.1128 193.11 68.1128C194.28 68.1028 195.23 69.0514 195.23 70.2296Z" fill="#918C88"/>
<path d="M2.12 89.2913C3.29084 89.2913 4.23999 88.3436 4.23999 87.1744C4.23999 86.0053 3.29084 85.0576 2.12 85.0576C0.949151 85.0576 0 86.0053 0 87.1744C0 88.3436 0.949151 89.2913 2.12 89.2913Z" fill="#918C88"/>
<path d="M21.22 89.2913C22.3909 89.2913 23.34 88.3436 23.34 87.1744C23.34 86.0053 22.3909 85.0576 21.22 85.0576C20.0492 85.0576 19.1 86.0053 19.1 87.1744C19.1 88.3436 20.0492 89.2913 21.22 89.2913Z" fill="#918C88"/>
<path d="M40.32 89.2913C41.4909 89.2913 42.44 88.3436 42.44 87.1744C42.44 86.0053 41.4909 85.0576 40.32 85.0576C39.1492 85.0576 38.2 86.0053 38.2 87.1744C38.2 88.3436 39.1492 89.2913 40.32 89.2913Z" fill="#918C88"/>
<path d="M59.42 89.2913C60.5909 89.2913 61.54 88.3436 61.54 87.1744C61.54 86.0053 60.5909 85.0576 59.42 85.0576C58.2492 85.0576 57.3 86.0053 57.3 87.1744C57.3 88.3436 58.2492 89.2913 59.42 89.2913Z" fill="#918C88"/>
<path d="M80.64 87.1744C80.64 88.3427 79.69 89.2913 78.52 89.2913C77.35 89.2913 76.4 88.3427 76.4 87.1744C76.4 86.0062 77.35 85.0576 78.52 85.0576C79.69 85.0576 80.64 86.0062 80.64 87.1744Z" fill="#918C88"/>
<path d="M97.61 89.2913C98.7808 89.2913 99.73 88.3436 99.73 87.1744C99.73 86.0053 98.7808 85.0576 97.61 85.0576C96.4391 85.0576 95.49 86.0053 95.49 87.1744C95.49 88.3436 96.4391 89.2913 97.61 89.2913Z" fill="#918C88"/>
<path d="M116.71 89.2913C117.881 89.2913 118.83 88.3436 118.83 87.1744C118.83 86.0053 117.881 85.0576 116.71 85.0576C115.539 85.0576 114.59 86.0053 114.59 87.1744C114.59 88.3436 115.539 89.2913 116.71 89.2913Z" fill="#918C88"/>
<path d="M135.81 89.2913C136.981 89.2913 137.93 88.3436 137.93 87.1744C137.93 86.0053 136.981 85.0576 135.81 85.0576C134.639 85.0576 133.69 86.0053 133.69 87.1744C133.69 88.3436 134.639 89.2913 135.81 89.2913Z" fill="#918C88"/>
<path d="M154.91 89.2913C156.081 89.2913 157.03 88.3436 157.03 87.1744C157.03 86.0053 156.081 85.0576 154.91 85.0576C153.739 85.0576 152.79 86.0053 152.79 87.1744C152.79 88.3436 153.739 89.2913 154.91 89.2913Z" fill="#918C88"/>
<path d="M174.01 89.2913C175.181 89.2913 176.13 88.3436 176.13 87.1744C176.13 86.0053 175.181 85.0576 174.01 85.0576C172.839 85.0576 171.89 86.0053 171.89 87.1744C171.89 88.3436 172.839 89.2913 174.01 89.2913Z" fill="#918C88"/>
<path d="M193.11 89.2913C194.281 89.2913 195.23 88.3436 195.23 87.1744C195.23 86.0053 194.281 85.0576 193.11 85.0576C191.939 85.0576 190.99 86.0053 190.99 87.1744C190.99 88.3436 191.939 89.2913 193.11 89.2913Z" fill="#918C88"/>
<path d="M2.12 106.246C3.29084 106.246 4.23999 105.298 4.23999 104.129C4.23999 102.96 3.29084 102.012 2.12 102.012C0.949151 102.012 0 102.96 0 104.129C0 105.298 0.949151 106.246 2.12 106.246Z" fill="#918C88"/>
<path d="M21.22 106.246C22.3909 106.246 23.34 105.298 23.34 104.129C23.34 102.96 22.3909 102.012 21.22 102.012C20.0492 102.012 19.1 102.96 19.1 104.129C19.1 105.298 20.0492 106.246 21.22 106.246Z" fill="#918C88"/>
<path d="M40.32 106.246C41.4909 106.246 42.44 105.298 42.44 104.129C42.44 102.96 41.4909 102.012 40.32 102.012C39.1492 102.012 38.2 102.96 38.2 104.129C38.2 105.298 39.1492 106.246 40.32 106.246Z" fill="#918C88"/>
<path d="M59.42 106.246C60.5909 106.246 61.54 105.298 61.54 104.129C61.54 102.96 60.5909 102.012 59.42 102.012C58.2492 102.012 57.3 102.96 57.3 104.129C57.3 105.298 58.2492 106.246 59.42 106.246Z" fill="#918C88"/>
<path d="M80.64 104.129C80.64 105.297 79.69 106.246 78.52 106.246C77.35 106.246 76.4 105.297 76.4 104.129C76.4 102.961 77.35 102.012 78.52 102.012C79.69 102.012 80.64 102.961 80.64 104.129Z" fill="#918C88"/>
<path d="M97.61 106.246C98.7808 106.246 99.73 105.298 99.73 104.129C99.73 102.96 98.7808 102.012 97.61 102.012C96.4391 102.012 95.49 102.96 95.49 104.129C95.49 105.298 96.4391 106.246 97.61 106.246Z" fill="#918C88"/>
<path d="M116.71 106.246C117.881 106.246 118.83 105.298 118.83 104.129C118.83 102.96 117.881 102.012 116.71 102.012C115.539 102.012 114.59 102.96 114.59 104.129C114.59 105.298 115.539 106.246 116.71 106.246Z" fill="#918C88"/>
<path d="M135.81 106.246C136.981 106.246 137.93 105.298 137.93 104.129C137.93 102.96 136.981 102.012 135.81 102.012C134.639 102.012 133.69 102.96 133.69 104.129C133.69 105.298 134.639 106.246 135.81 106.246Z" fill="#918C88"/>
<path d="M154.91 106.246C156.081 106.246 157.03 105.298 157.03 104.129C157.03 102.96 156.081 102.012 154.91 102.012C153.739 102.012 152.79 102.96 152.79 104.129C152.79 105.298 153.739 106.246 154.91 106.246Z" fill="#918C88"/>
<path d="M174.01 106.246C175.181 106.246 176.13 105.298 176.13 104.129C176.13 102.96 175.181 102.012 174.01 102.012C172.839 102.012 171.89 102.96 171.89 104.129C171.89 105.298 172.839 106.246 174.01 106.246Z" fill="#918C88"/>
<path d="M193.11 106.246C194.281 106.246 195.23 105.298 195.23 104.129C195.23 102.96 194.281 102.012 193.11 102.012C191.939 102.012 190.99 102.96 190.99 104.129C190.99 105.298 191.939 106.246 193.11 106.246Z" fill="#918C88"/>
<path d="M4.23999 121.084C4.23999 122.252 3.29 123.201 2.12 123.201C0.949995 123.201 0 122.252 0 121.084C0 119.916 0.949995 118.967 2.12 118.967C3.29 118.957 4.23999 119.906 4.23999 121.084Z" fill="#918C88"/>
<path d="M23.34 121.084C23.34 122.252 22.39 123.201 21.22 123.201C20.05 123.201 19.1 122.252 19.1 121.084C19.1 119.916 20.05 118.967 21.22 118.967C22.39 118.957 23.34 119.906 23.34 121.084Z" fill="#918C88"/>
<path d="M42.44 121.084C42.44 122.252 41.49 123.201 40.32 123.201C39.15 123.201 38.2 122.252 38.2 121.084C38.2 119.916 39.15 118.967 40.32 118.967C41.49 118.957 42.44 119.906 42.44 121.084Z" fill="#918C88"/>
<path d="M61.54 121.084C61.54 122.252 60.59 123.201 59.42 123.201C58.25 123.201 57.3 122.252 57.3 121.084C57.3 119.916 58.25 118.967 59.42 118.967C60.59 118.957 61.54 119.906 61.54 121.084Z" fill="#918C88"/>
<path d="M80.64 121.084C80.64 122.252 79.69 123.201 78.52 123.201C77.35 123.201 76.4 122.252 76.4 121.084C76.4 119.916 77.35 118.967 78.52 118.967C79.69 118.957 80.64 119.906 80.64 121.084Z" fill="#918C88"/>
<path d="M99.74 121.084C99.74 122.252 98.79 123.201 97.62 123.201C96.45 123.201 95.5 122.252 95.5 121.084C95.5 119.916 96.45 118.967 97.62 118.967C98.78 118.957 99.74 119.906 99.74 121.084Z" fill="#918C88"/>
<path d="M118.83 121.084C118.83 122.252 117.88 123.201 116.71 123.201C115.54 123.201 114.59 122.252 114.59 121.084C114.59 119.916 115.54 118.967 116.71 118.967C117.88 118.957 118.83 119.906 118.83 121.084Z" fill="#918C88"/>
<path d="M137.93 121.084C137.93 122.252 136.98 123.201 135.81 123.201C134.64 123.201 133.69 122.252 133.69 121.084C133.69 119.916 134.64 118.967 135.81 118.967C136.98 118.967 137.93 119.906 137.93 121.084Z" fill="#918C88"/>
<path d="M157.03 121.084C157.03 122.252 156.08 123.201 154.91 123.201C153.74 123.201 152.79 122.252 152.79 121.084C152.79 119.916 153.74 118.967 154.91 118.967C156.08 118.957 157.03 119.906 157.03 121.084Z" fill="#918C88"/>
<path d="M176.13 121.084C176.13 122.252 175.18 123.201 174.01 123.201C172.84 123.201 171.89 122.252 171.89 121.084C171.89 119.916 172.84 118.967 174.01 118.967C175.18 118.957 176.13 119.906 176.13 121.084Z" fill="#918C88"/>
<path d="M195.23 121.084C195.23 122.252 194.28 123.201 193.11 123.201C191.94 123.201 190.99 122.252 190.99 121.084C190.99 119.916 191.94 118.967 193.11 118.967C194.28 118.957 195.23 119.906 195.23 121.084Z" fill="#918C88"/>
<path d="M4.23999 138.029C4.23999 139.197 3.29 140.146 2.12 140.146C0.949995 140.146 0 139.197 0 138.029C0 136.861 0.949995 135.912 2.12 135.912C3.29 135.912 4.23999 136.861 4.23999 138.029Z" fill="#918C88"/>
<path d="M23.34 138.029C23.34 139.197 22.39 140.146 21.22 140.146C20.05 140.146 19.1 139.197 19.1 138.029C19.1 136.861 20.05 135.912 21.22 135.912C22.39 135.912 23.34 136.861 23.34 138.029Z" fill="#918C88"/>
<path d="M42.44 138.029C42.44 139.197 41.49 140.146 40.32 140.146C39.15 140.146 38.2 139.197 38.2 138.029C38.2 136.861 39.15 135.912 40.32 135.912C41.49 135.912 42.44 136.861 42.44 138.029Z" fill="#918C88"/>
<path d="M61.54 138.029C61.54 139.197 60.59 140.146 59.42 140.146C58.25 140.146 57.3 139.197 57.3 138.029C57.3 136.861 58.25 135.912 59.42 135.912C60.59 135.912 61.54 136.861 61.54 138.029Z" fill="#918C88"/>
<path d="M80.64 138.029C80.64 139.197 79.69 140.146 78.52 140.146C77.35 140.146 76.4 139.197 76.4 138.029C76.4 136.861 77.35 135.912 78.52 135.912C79.69 135.912 80.64 136.861 80.64 138.029Z" fill="#918C88"/>
<path d="M99.74 138.029C99.74 139.197 98.79 140.146 97.62 140.146C96.45 140.146 95.5 139.197 95.5 138.029C95.5 136.861 96.45 135.912 97.62 135.912C98.78 135.912 99.74 136.861 99.74 138.029Z" fill="#918C88"/>
<path d="M118.83 138.029C118.83 139.197 117.88 140.146 116.71 140.146C115.54 140.146 114.59 139.197 114.59 138.029C114.59 136.861 115.54 135.912 116.71 135.912C117.88 135.912 118.83 136.861 118.83 138.029Z" fill="#918C88"/>
<path d="M137.93 138.029C137.93 139.197 136.98 140.146 135.81 140.146C134.64 140.146 133.69 139.197 133.69 138.029C133.69 136.861 134.64 135.912 135.81 135.912C136.98 135.912 137.93 136.861 137.93 138.029Z" fill="#918C88"/>
<path d="M157.03 138.029C157.03 139.197 156.08 140.146 154.91 140.146C153.74 140.146 152.79 139.197 152.79 138.029C152.79 136.861 153.74 135.912 154.91 135.912C156.08 135.912 157.03 136.861 157.03 138.029Z" fill="#918C88"/>
<path d="M176.13 138.029C176.13 139.197 175.18 140.146 174.01 140.146C172.84 140.146 171.89 139.197 171.89 138.029C171.89 136.861 172.84 135.912 174.01 135.912C175.18 135.912 176.13 136.861 176.13 138.029Z" fill="#918C88"/>
<path d="M195.23 138.029C195.23 139.197 194.28 140.146 193.11 140.146C191.94 140.146 190.99 139.197 190.99 138.029C190.99 136.861 191.94 135.912 193.11 135.912C194.28 135.912 195.23 136.861 195.23 138.029Z" fill="#918C88"/>
<path d="M2.12 157.1C3.29084 157.1 4.23999 156.153 4.23999 154.984C4.23999 153.814 3.29084 152.867 2.12 152.867C0.949151 152.867 0 153.814 0 154.984C0 156.153 0.949151 157.1 2.12 157.1Z" fill="#918C88"/>
<path d="M21.22 157.1C22.3909 157.1 23.34 156.153 23.34 154.984C23.34 153.814 22.3909 152.867 21.22 152.867C20.0492 152.867 19.1 153.814 19.1 154.984C19.1 156.153 20.0492 157.1 21.22 157.1Z" fill="#918C88"/>
<path d="M40.32 157.1C41.4909 157.1 42.44 156.153 42.44 154.984C42.44 153.814 41.4909 152.867 40.32 152.867C39.1492 152.867 38.2 153.814 38.2 154.984C38.2 156.153 39.1492 157.1 40.32 157.1Z" fill="#918C88"/>
<path d="M59.42 157.1C60.5909 157.1 61.54 156.153 61.54 154.984C61.54 153.814 60.5909 152.867 59.42 152.867C58.2492 152.867 57.3 153.814 57.3 154.984C57.3 156.153 58.2492 157.1 59.42 157.1Z" fill="#918C88"/>
<path d="M80.64 154.984C80.64 156.152 79.69 157.1 78.52 157.1C77.35 157.1 76.4 156.152 76.4 154.984C76.4 153.815 77.35 152.867 78.52 152.867C79.69 152.867 80.64 153.815 80.64 154.984Z" fill="#918C88"/>
<path d="M97.61 157.1C98.7808 157.1 99.73 156.153 99.73 154.984C99.73 153.814 98.7808 152.867 97.61 152.867C96.4391 152.867 95.49 153.814 95.49 154.984C95.49 156.153 96.4391 157.1 97.61 157.1Z" fill="#918C88"/>
<path d="M116.71 157.1C117.881 157.1 118.83 156.153 118.83 154.984C118.83 153.814 117.881 152.867 116.71 152.867C115.539 152.867 114.59 153.814 114.59 154.984C114.59 156.153 115.539 157.1 116.71 157.1Z" fill="#918C88"/>
<path d="M135.81 157.1C136.981 157.1 137.93 156.153 137.93 154.984C137.93 153.814 136.981 152.867 135.81 152.867C134.639 152.867 133.69 153.814 133.69 154.984C133.69 156.153 134.639 157.1 135.81 157.1Z" fill="#918C88"/>
<path d="M154.91 157.1C156.081 157.1 157.03 156.153 157.03 154.984C157.03 153.814 156.081 152.867 154.91 152.867C153.739 152.867 152.79 153.814 152.79 154.984C152.79 156.153 153.739 157.1 154.91 157.1Z" fill="#918C88"/>
<path d="M174.01 157.1C175.181 157.1 176.13 156.153 176.13 154.984C176.13 153.814 175.181 152.867 174.01 152.867C172.839 152.867 171.89 153.814 171.89 154.984C171.89 156.153 172.839 157.1 174.01 157.1Z" fill="#918C88"/>
<path d="M193.11 157.1C194.281 157.1 195.23 156.153 195.23 154.984C195.23 153.814 194.281 152.867 193.11 152.867C191.939 152.867 190.99 153.814 190.99 154.984C190.99 156.153 191.939 157.1 193.11 157.1Z" fill="#918C88"/>
<path d="M2.12 174.055C3.29084 174.055 4.23999 173.107 4.23999 171.938C4.23999 170.769 3.29084 169.822 2.12 169.822C0.949151 169.822 0 170.769 0 171.938C0 173.107 0.949151 174.055 2.12 174.055Z" fill="#918C88"/>
<path d="M21.22 174.055C22.3909 174.055 23.34 173.107 23.34 171.938C23.34 170.769 22.3909 169.822 21.22 169.822C20.0492 169.822 19.1 170.769 19.1 171.938C19.1 173.107 20.0492 174.055 21.22 174.055Z" fill="#918C88"/>
<path d="M40.32 174.055C41.4909 174.055 42.44 173.107 42.44 171.938C42.44 170.769 41.4909 169.822 40.32 169.822C39.1492 169.822 38.2 170.769 38.2 171.938C38.2 173.107 39.1492 174.055 40.32 174.055Z" fill="#918C88"/>
<path d="M59.42 174.055C60.5909 174.055 61.54 173.107 61.54 171.938C61.54 170.769 60.5909 169.822 59.42 169.822C58.2492 169.822 57.3 170.769 57.3 171.938C57.3 173.107 58.2492 174.055 59.42 174.055Z" fill="#918C88"/>
<path d="M80.64 171.938C80.64 173.107 79.69 174.055 78.52 174.055C77.35 174.055 76.4 173.107 76.4 171.938C76.4 170.77 77.35 169.822 78.52 169.822C79.69 169.812 80.64 170.76 80.64 171.938Z" fill="#918C88"/>
<path d="M97.61 174.055C98.7808 174.055 99.73 173.107 99.73 171.938C99.73 170.769 98.7808 169.822 97.61 169.822C96.4391 169.822 95.49 170.769 95.49 171.938C95.49 173.107 96.4391 174.055 97.61 174.055Z" fill="#918C88"/>
<path d="M116.71 174.055C117.881 174.055 118.83 173.107 118.83 171.938C118.83 170.769 117.881 169.822 116.71 169.822C115.539 169.822 114.59 170.769 114.59 171.938C114.59 173.107 115.539 174.055 116.71 174.055Z" fill="#918C88"/>
<path d="M135.81 174.055C136.981 174.055 137.93 173.107 137.93 171.938C137.93 170.769 136.981 169.822 135.81 169.822C134.639 169.822 133.69 170.769 133.69 171.938C133.69 173.107 134.639 174.055 135.81 174.055Z" fill="#918C88"/>
<path d="M154.91 174.055C156.081 174.055 157.03 173.107 157.03 171.938C157.03 170.769 156.081 169.822 154.91 169.822C153.739 169.822 152.79 170.769 152.79 171.938C152.79 173.107 153.739 174.055 154.91 174.055Z" fill="#918C88"/>
<path d="M174.01 174.055C175.181 174.055 176.13 173.107 176.13 171.938C176.13 170.769 175.181 169.822 174.01 169.822C172.839 169.822 171.89 170.769 171.89 171.938C171.89 173.107 172.839 174.055 174.01 174.055Z" fill="#918C88"/>
<path d="M193.11 174.055C194.281 174.055 195.23 173.107 195.23 171.938C195.23 170.769 194.281 169.822 193.11 169.822C191.939 169.822 190.99 170.769 190.99 171.938C190.99 173.107 191.939 174.055 193.11 174.055Z" fill="#918C88"/>
<path d="M4.23999 188.883C4.23999 190.051 3.29 191 2.12 191C0.949995 191 0 190.051 0 188.883C0 187.715 0.949995 186.766 2.12 186.766C3.29 186.766 4.23999 187.715 4.23999 188.883Z" fill="#918C88"/>
<path d="M23.34 188.883C23.34 190.051 22.39 191 21.22 191C20.05 191 19.1 190.051 19.1 188.883C19.1 187.715 20.05 186.766 21.22 186.766C22.39 186.766 23.34 187.715 23.34 188.883Z" fill="#918C88"/>
<path d="M42.44 188.883C42.44 190.051 41.49 191 40.32 191C39.15 191 38.2 190.051 38.2 188.883C38.2 187.715 39.15 186.766 40.32 186.766C41.49 186.766 42.44 187.715 42.44 188.883Z" fill="#918C88"/>
<path d="M61.54 188.883C61.54 190.051 60.59 191 59.42 191C58.25 191 57.3 190.051 57.3 188.883C57.3 187.715 58.25 186.766 59.42 186.766C60.59 186.766 61.54 187.715 61.54 188.883Z" fill="#918C88"/>
<path d="M80.64 188.883C80.64 190.051 79.69 191 78.52 191C77.35 191 76.4 190.051 76.4 188.883C76.4 187.715 77.35 186.766 78.52 186.766C79.69 186.766 80.64 187.715 80.64 188.883Z" fill="#918C88"/>
<path d="M99.74 188.883C99.74 190.051 98.79 191 97.62 191C96.45 191 95.5 190.051 95.5 188.883C95.5 187.715 96.45 186.766 97.62 186.766C98.78 186.766 99.74 187.715 99.74 188.883Z" fill="#918C88"/>
<path d="M118.83 188.883C118.83 190.051 117.88 191 116.71 191C115.54 191 114.59 190.051 114.59 188.883C114.59 187.715 115.54 186.766 116.71 186.766C117.88 186.766 118.83 187.715 118.83 188.883Z" fill="#918C88"/>
<path d="M137.93 188.883C137.93 190.051 136.98 191 135.81 191C134.64 191 133.69 190.051 133.69 188.883C133.69 187.715 134.64 186.766 135.81 186.766C136.98 186.766 137.93 187.715 137.93 188.883Z" fill="#918C88"/>
<path d="M157.03 188.883C157.03 190.051 156.08 191 154.91 191C153.74 191 152.79 190.051 152.79 188.883C152.79 187.715 153.74 186.766 154.91 186.766C156.08 186.766 157.03 187.715 157.03 188.883Z" fill="#918C88"/>
<path d="M176.13 188.883C176.13 190.051 175.18 191 174.01 191C172.84 191 171.89 190.051 171.89 188.883C171.89 187.715 172.84 186.766 174.01 186.766C175.18 186.766 176.13 187.715 176.13 188.883Z" fill="#918C88"/>
<path d="M195.23 188.883C195.23 190.051 194.28 191 193.11 191C191.94 191 190.99 190.051 190.99 188.883C190.99 187.715 191.94 186.766 193.11 186.766C194.28 186.766 195.23 187.715 195.23 188.883Z" fill="#918C88"/>
</g>
</svg>
