<svg width="19" height="18" viewBox="0 0 19 18" fill="none" xmlns="http://www.w3.org/2000/svg">
<path d="M11.4891 1.77466H7.76496C6.45055 1.77466 6.15847 2.43102 5.99051 3.24054L5.39172 6.09933H13.8623L13.2636 3.24054C13.0956 2.43102 12.8035 1.77466 11.4891 1.77466Z" stroke="#FF992E" stroke-width="1.19492" stroke-linecap="round" stroke-linejoin="round"/>
<path d="M14.9139 10.7593C14.9723 11.3792 14.4758 11.9115 13.8405 11.9115H12.8474C12.2778 11.9115 12.1975 11.6709 12.0952 11.3646L11.9857 11.051C11.8396 10.6207 11.7447 10.329 10.978 10.329H8.26884C7.5094 10.329 7.39256 10.6571 7.26112 11.051L7.15159 11.3646C7.04936 11.6636 6.96904 11.9115 6.39946 11.9115H5.40635C4.77106 11.9115 4.2745 11.3792 4.33292 10.7593L4.63232 7.53582C4.70534 6.74089 4.85868 6.0918 6.24611 6.0918H13.0007C14.3881 6.0918 14.5415 6.74089 14.6145 7.53582L14.9139 10.7593Z" stroke="#FF992E" stroke-width="1.19492" stroke-linecap="round" stroke-linejoin="round"/>
<path d="M5.39177 4.50952H4.8587" stroke="#FF992E" stroke-width="1.19492" stroke-linecap="round" stroke-linejoin="round"/>
<path d="M14.3954 4.50952H13.8624" stroke="#FF992E" stroke-width="1.19492" stroke-linecap="round" stroke-linejoin="round"/>
<path d="M6.45056 8.21436H8.03516" stroke="#FF992E" stroke-width="1.19492" stroke-linecap="round" stroke-linejoin="round"/>
<path d="M11.2189 8.21436H12.8035" stroke="#FF992E" stroke-width="1.19492" stroke-linecap="round" stroke-linejoin="round"/>
<path d="M9.62708 12.7141V13.4434" stroke="#FF992E" stroke-width="1.19492" stroke-linecap="round" stroke-linejoin="round"/>
<path d="M9.62708 15.6313V16.3606" stroke="#FF992E" stroke-width="1.19492" stroke-linecap="round" stroke-linejoin="round"/>
<path d="M3.05502 13.4434L2.3248 16.3605" stroke="#FF992E" stroke-width="1.19492" stroke-linecap="round" stroke-linejoin="round"/>
<path d="M16.1991 13.4434L16.9293 16.3605" stroke="#FF992E" stroke-width="1.19492" stroke-linecap="round" stroke-linejoin="round"/>
</svg>
