<svg width="12" height="18" viewBox="0 0 12 18" fill="none" xmlns="http://www.w3.org/2000/svg">
<path d="M5.64019 4.07388C6.10669 4.07388 6.48488 3.69569 6.48488 3.22919C6.48488 2.38011 7.17573 1.68938 8.02469 1.68938H10.41C10.8765 1.68938 11.2547 1.31118 11.2547 0.84469C11.2547 0.378196 10.8765 0 10.41 0H8.02469C6.24409 0 4.7955 1.44859 4.7955 3.22919C4.7955 3.69557 5.1737 4.07388 5.64019 4.07388Z" fill="#6C6864"/>
<path d="M10.2289 6.71484H1.5903C1.1238 6.71484 0.745605 7.09304 0.745605 7.55953C0.745605 8.02603 1.1238 8.40422 1.5903 8.40422H4.79561V17.1546C4.79561 17.6211 5.17381 17.9993 5.6403 17.9993C6.1068 17.9993 6.48499 17.6211 6.48499 17.1546V8.40422H10.229C10.6955 8.40422 11.0737 8.02603 11.0737 7.55953C11.0737 7.09304 10.6954 6.71484 10.2289 6.71484Z" fill="#6C6864"/>
</svg>
