<svg width="20" height="20" viewBox="0 0 20 20" fill="none" xmlns="http://www.w3.org/2000/svg">
<g clip-path="url(#clip0_222_1870)">
<path d="M14.4079 9.11514H14.425C16.3251 9.10624 17.868 7.55746 17.868 5.65499C17.868 4.61048 17.303 3.75221 16.6193 2.8191L14.4079 0L12.1964 2.8191C11.5127 3.75213 10.9476 4.61036 10.9476 5.65495C10.9476 7.56289 12.4999 9.11514 14.4079 9.11514Z" fill="#219FFF"/>
<path d="M14.4084 10.287L14.3877 10.2869C11.8428 10.276 9.77581 8.20231 9.77581 5.65488C9.77581 5.02367 9.9185 4.45936 10.1464 3.93228L8.86121 2.29382L4.33366 8.06556L4.32218 8.08076C3.16798 9.65493 2.13199 11.2364 2.13199 13.2706C2.13199 16.9723 5.13631 19.9855 8.83473 19.9998L8.86215 20C12.5722 20 15.5906 16.9812 15.5906 13.2707C15.5906 12.1592 15.281 11.183 14.8121 10.2692C14.679 10.2807 14.5444 10.287 14.4084 10.287Z" fill="#219FFF"/>
</g>
<defs>
<clipPath id="clip0_222_1870">
<rect width="20" height="20" fill="white"/>
</clipPath>
</defs>
</svg>
