<svg width="20" height="20" viewBox="0 0 20 20" fill="none" xmlns="http://www.w3.org/2000/svg">
<g clip-path="url(#clip0_222_1878)">
<path d="M20 2.33333C20 1.00809 18.8952 -0.0591342 17.5564 0.00254552C16.3709 0.0571549 15.4046 1.01223 15.3372 2.197C15.281 3.18513 15.8402 4.04915 16.6667 4.44181V7.66665C16.6667 8.40302 16.0697 8.99997 15.3334 8.99997H12.1085C11.878 8.51486 11.4851 8.12197 11 7.8915V4.44181C11.8265 4.04911 12.3857 3.18513 12.3295 2.197C12.2621 1.01223 11.2958 0.0571549 10.1103 0.00254552C8.77151 -0.0590951 7.66671 1.00809 7.66671 2.33333C7.66671 3.26407 8.21179 4.06731 9.00003 4.44181V7.89154C8.51491 8.12204 8.12202 8.5149 7.89155 9.00001H3.33331V4.44181C4.15979 4.04911 4.71897 3.18513 4.66276 2.197C4.59538 1.01223 3.62905 0.0571549 2.44362 0.00254552C1.10479 -0.0590951 -1.30761e-05 1.00809 -1.30761e-05 2.33333C-1.30761e-05 3.26407 0.545065 4.06731 1.33331 4.44181V15.5582C0.506823 15.9509 -0.0523568 16.8149 0.00385411 17.803C0.0712369 18.9878 1.03757 19.9428 2.223 19.9974C3.56182 20.0591 4.66663 18.9919 4.66663 17.6667C4.66663 16.7359 4.12155 15.9327 3.33331 15.5582V11H7.89147C8.12198 11.4851 8.51483 11.878 8.99995 12.1085V15.5582C8.17347 15.9509 7.61429 16.8149 7.6705 17.803C7.73788 18.9878 8.70421 19.9429 9.88964 19.9975C11.2285 20.0591 12.3333 18.9919 12.3333 17.6667C12.3333 16.736 11.7882 15.9327 11 15.5582V12.1085C11.4851 11.878 11.878 11.4851 12.1084 11H15.3333C17.1742 11 18.6666 9.50763 18.6666 7.66669V4.44181C19.4549 4.06731 20 3.26407 20 2.33333Z" fill="#17BD8D"/>
</g>
<defs>
<clipPath id="clip0_222_1878">
<rect width="20" height="20" fill="white"/>
</clipPath>
</defs>
</svg>
