<svg width="18" height="18" viewBox="0 0 18 18" fill="none" xmlns="http://www.w3.org/2000/svg">
<g clip-path="url(#clip0_222_2390)">
<path d="M13.0325 0H4.96721C2.22829 0 0 2.2284 0 4.96732V13.0326C0 15.7716 2.22829 17.9999 4.96721 17.9999H13.0325C15.7716 17.9999 17.9999 15.7715 17.9999 13.0326V4.96732C18 2.2284 15.7716 0 13.0325 0ZM16.403 13.0326C16.403 14.891 14.891 16.4029 13.0326 16.4029H4.96721C3.1089 16.403 1.59704 14.891 1.59704 13.0326V4.96732C1.59704 3.10901 3.1089 1.59704 4.96721 1.59704H13.0325C14.8909 1.59704 16.4029 3.10901 16.4029 4.96732V13.0326H16.403Z" fill="#6C6864"/>
<path d="M8.99993 4.3623C6.44244 4.3623 4.36182 6.44293 4.36182 9.00042C4.36182 11.5578 6.44244 13.6383 8.99993 13.6383C11.5574 13.6383 13.6381 11.5578 13.6381 9.00042C13.6381 6.44293 11.5574 4.3623 8.99993 4.3623ZM8.99993 12.0412C7.32315 12.0412 5.95885 10.6771 5.95885 9.00032C5.95885 7.32343 7.32304 5.95924 8.99993 5.95924C10.6768 5.95924 12.041 7.32343 12.041 9.00032C12.041 10.6771 10.6767 12.0412 8.99993 12.0412Z" fill="#6C6864"/>
<path d="M13.8323 3.00879C13.5246 3.00879 13.2223 3.13336 13.005 3.35162C12.7867 3.56882 12.6611 3.87119 12.6611 4.17995C12.6611 4.48775 12.7868 4.79002 13.005 5.00828C13.2222 5.22548 13.5246 5.35111 13.8323 5.35111C14.1411 5.35111 14.4424 5.22548 14.6606 5.00828C14.8789 4.79002 15.0035 4.48765 15.0035 4.17995C15.0035 3.87119 14.8789 3.56882 14.6606 3.35162C14.4434 3.13336 14.1411 3.00879 13.8323 3.00879Z" fill="#6C6864"/>
</g>
<defs>
<clipPath id="clip0_222_2390">
<rect width="18" height="18" fill="white"/>
</clipPath>
</defs>
</svg>
