<svg width="30" height="31" viewBox="0 0 30 31" fill="none" xmlns="http://www.w3.org/2000/svg">
<path opacity="0.4" d="M27.3227 17.524C27.138 15.4646 26.5959 13.2678 22.6417 13.2678H6.92307C2.96879 13.2678 2.43909 15.4646 2.24199 17.524L1.55215 25.1252C1.46592 26.0738 1.77388 27.0224 2.41445 27.7338C3.06734 28.4578 3.99124 28.8696 4.97673 28.8696H7.29263C9.28825 28.8696 9.67013 27.7089 9.9165 26.9475L10.1629 26.1986C10.4462 25.3374 10.5201 25.1252 11.6288 25.1252H17.9359C19.0446 25.1252 19.0816 25.25 19.4019 26.1986L19.6482 26.9475C19.8946 27.7089 20.2765 28.8696 22.2721 28.8696H24.588C25.5612 28.8696 26.4974 28.4578 27.1503 27.7338C27.7909 27.0224 28.0988 26.0738 28.0126 25.1252L27.3227 17.524Z" fill="#FF992E"/>
<path d="M25.8692 9.52342H24.6373C24.625 9.52342 24.625 9.52342 24.6126 9.52342L24.1445 7.26427C23.7011 5.08002 22.7772 3.07051 19.1062 3.07051H15.7063H13.8585H10.4585C6.78758 3.07051 5.86368 5.08002 5.42021 7.26427L4.9521 9.52342C4.93978 9.52342 4.93978 9.52342 4.92746 9.52342H3.6956C3.19053 9.52342 2.7717 9.94778 2.7717 10.4595C2.7717 10.9713 3.19053 11.3956 3.6956 11.3956H4.57022L4.05284 13.8919C4.71804 13.505 5.64194 13.2678 6.92308 13.2678H22.6417C23.9228 13.2678 24.8467 13.505 25.5119 13.8919L24.9945 11.3956H25.8692C26.3742 11.3956 26.7931 10.9713 26.7931 10.4595C26.7931 9.94778 26.3742 9.52342 25.8692 9.52342Z" fill="#FF992E"/>
<path d="M11.0868 20.1326H7.39118C6.88612 20.1326 6.46729 19.7083 6.46729 19.1965C6.46729 18.6848 6.88612 18.2604 7.39118 18.2604H11.0868C11.5918 18.2604 12.0107 18.6848 12.0107 19.1965C12.0107 19.7083 11.5918 20.1326 11.0868 20.1326Z" fill="#FF992E"/>
<path d="M22.1736 20.1326H18.478C17.9729 20.1326 17.5541 19.7083 17.5541 19.1965C17.5541 18.6848 17.9729 18.2604 18.478 18.2604H22.1736C22.6786 18.2604 23.0975 18.6848 23.0975 19.1965C23.0975 19.7083 22.6786 20.1326 22.1736 20.1326Z" fill="#FF992E"/>
</svg>
