<svg width="80" height="80" viewBox="0 0 80 80" fill="none" xmlns="http://www.w3.org/2000/svg">
<circle cx="40" cy="40" r="40" fill="url(#paint0_linear_222_1820)"/>
<path opacity="0.4" d="M52.93 35.05C51.37 28.105 45.31 25 40 25C40 25 40 25 39.985 25C34.69 25 28.645 28.105 27.07 35.035C25.3 42.775 30.04 49.33 34.33 53.47C35.92 55 37.96 55.765 40 55.765C42.04 55.765 44.08 55 45.655 53.47C49.945 49.33 54.685 42.79 52.93 35.05Z" fill="white"/>
<path d="M38.125 42.6249C37.84 42.6249 37.555 42.5199 37.33 42.2949L35.08 40.0449C34.645 39.6099 34.645 38.8899 35.08 38.4549C35.515 38.0199 36.235 38.0199 36.67 38.4549L38.125 39.9099L43.33 34.7049C43.765 34.2699 44.485 34.2699 44.92 34.7049C45.355 35.1399 45.355 35.8599 44.92 36.2949L38.92 42.2949C38.695 42.5199 38.41 42.6249 38.125 42.6249Z" fill="white"/>
<defs>
<linearGradient id="paint0_linear_222_1820" x1="40" y1="0" x2="40" y2="80" gradientUnits="userSpaceOnUse">
<stop stop-color="#FF8008"/>
<stop offset="1" stop-color="#FF3737"/>
</linearGradient>
</defs>
</svg>
