<svg width="98" height="98" viewBox="0 0 98 98" fill="none" xmlns="http://www.w3.org/2000/svg">
<circle cx="49" cy="49" r="40" fill="url(#paint0_linear_222_1832)"/>
<path d="M49 59.125C48.385 59.125 47.875 58.615 47.875 58V56.5C47.875 55.885 48.385 55.375 49 55.375C49.615 55.375 50.125 55.885 50.125 56.5V58C50.125 58.615 49.615 59.125 49 59.125Z" fill="white"/>
<path d="M49 65.125C48.385 65.125 47.875 64.615 47.875 64V62.5C47.875 61.885 48.385 61.375 49 61.375C49.615 61.375 50.125 61.885 50.125 62.5V64C50.125 64.615 49.615 65.125 49 65.125Z" fill="white"/>
<path d="M34 65.125C33.91 65.125 33.82 65.11 33.73 65.095C33.13 64.945 32.755 64.33 32.905 63.73L34.405 57.73C34.555 57.13 35.155 56.755 35.77 56.905C36.37 57.055 36.745 57.67 36.595 58.27L35.095 64.27C34.96 64.78 34.51 65.125 34 65.125Z" fill="white"/>
<path d="M64 65.125C63.49 65.125 63.04 64.78 62.905 64.27L61.405 58.27C61.255 57.67 61.615 57.055 62.23 56.905C62.83 56.755 63.445 57.115 63.595 57.73L65.095 63.73C65.245 64.33 64.885 64.945 64.27 65.095C64.18 65.11 64.09 65.125 64 65.125Z" fill="white"/>
<path opacity="0.4" d="M59.89 45.28C59.725 43.51 59.26 41.635 55.825 41.635H42.175C38.74 41.635 38.275 43.525 38.11 45.28L37.51 51.7899C37.435 52.5999 37.705 53.4099 38.26 54.0249C38.83 54.6399 39.64 55 40.48 55H42.49C44.215 55 44.545 54.01 44.77 53.35L44.98 52.7049C45.22 51.9699 45.28 51.7899 46.255 51.7899H51.73C52.69 51.7899 52.72 51.8949 53.005 52.7049L53.215 53.35C53.44 54.01 53.77 55 55.495 55H57.505C58.345 55 59.155 54.6399 59.725 54.0249C60.28 53.4249 60.55 52.5999 60.475 51.7899L59.89 45.28Z" fill="white"/>
<path d="M58.63 38.41H57.565C57.55 38.41 57.55 38.41 57.55 38.41L57.145 36.475C56.755 34.6 55.96 32.875 52.765 32.875H49.81H48.205H45.25C42.055 32.875 41.26 34.6 40.87 36.475L40.465 38.41C40.45 38.41 40.45 38.41 40.45 38.41H39.385C38.935 38.41 38.575 38.77 38.575 39.22C38.575 39.67 38.935 40.03 39.385 40.03H40.15L39.7 42.175C40.285 41.845 41.08 41.635 42.19 41.635H55.84C56.95 41.635 57.76 41.845 58.33 42.175L57.88 40.03H58.645C59.095 40.03 59.455 39.67 59.455 39.22C59.44 38.77 59.08 38.41 58.63 38.41Z" fill="white"/>
<path d="M45.79 47.515H42.58C42.13 47.515 41.77 47.155 41.77 46.705C41.77 46.255 42.13 45.895 42.58 45.895H45.79C46.24 45.895 46.6 46.255 46.6 46.705C46.585 47.155 46.225 47.515 45.79 47.515Z" fill="white"/>
<path d="M55.42 47.515H52.21C51.76 47.515 51.4 47.155 51.4 46.705C51.4 46.255 51.76 45.895 52.21 45.895H55.42C55.87 45.895 56.23 46.255 56.23 46.705C56.23 47.155 55.87 47.515 55.42 47.515Z" fill="white"/>
<circle opacity="0.5" cx="49" cy="49" r="48" stroke="#FF992E" stroke-width="2" stroke-linejoin="round" stroke-dasharray="5 5"/>
<defs>
<linearGradient id="paint0_linear_222_1832" x1="49" y1="9" x2="49" y2="89" gradientUnits="userSpaceOnUse">
<stop stop-color="#AA076B"/>
<stop offset="1" stop-color="#490461"/>
</linearGradient>
</defs>
</svg>
