<svg width="30" height="30" viewBox="0 0 30 30" fill="none" xmlns="http://www.w3.org/2000/svg">
<path d="M16.75 5.3765V7.62729H18.6C20.6125 7.62729 21.625 8.61276 21.625 10.5716V22.2271H24.8125C26.6 22.2271 27.5 21.3511 27.5 19.6113V5.3765C27.5 3.63669 26.6 2.76067 24.8125 2.76067H19.4375C17.65 2.76067 16.75 3.63669 16.75 5.3765Z" fill="#219FFF"/>
<path opacity="0.4" d="M8.28751 10.5716V24.1495C8.28751 26.1083 9.28747 27.0938 11.3 27.0938H18.6C20.6125 27.0938 21.625 26.1083 21.625 24.1495V10.5716C21.625 8.61276 20.6125 7.62729 18.6 7.62729H11.3C9.28747 7.62729 8.28751 8.61276 8.28751 10.5716Z" fill="#219FFF"/>
<path d="M2.5 5.3765V19.6113C2.5 21.3511 3.40003 22.2271 5.18753 22.2271H8.28751V10.5716C8.28751 8.61276 9.28747 7.62729 11.3 7.62729H13.25V5.3765C13.25 3.63669 12.35 2.76067 10.5625 2.76067H5.18753C3.40003 2.76067 2.5 3.63669 2.5 5.3765Z" fill="#219FFF"/>
<path d="M12.5 14.6231H17.5C18.0125 14.6231 18.4375 14.2094 18.4375 13.7106C18.4375 13.2117 18.0125 12.7981 17.5 12.7981H12.5C11.9875 12.7981 11.5625 13.2117 11.5625 13.7106C11.5625 14.2094 11.9875 14.6231 12.5 14.6231Z" fill="#219FFF"/>
<path d="M12.5 18.273H17.5C18.0125 18.273 18.4375 17.8594 18.4375 17.3605C18.4375 16.8617 18.0125 16.448 17.5 16.448H12.5C11.9875 16.448 11.5625 16.8617 11.5625 17.3605C11.5625 17.8594 11.9875 18.273 12.5 18.273Z" fill="#219FFF"/>
<path d="M14.0625 23.4438V27.0938H15.9375V23.4438C15.9375 22.945 15.5125 22.5313 15 22.5313C14.4875 22.5313 14.0625 22.945 14.0625 23.4438Z" fill="#219FFF"/>
</svg>
