<svg width="30" height="30" viewBox="0 0 30 30" fill="none" xmlns="http://www.w3.org/2000/svg">
<path opacity="0.4" d="M3.28749 14.0366V21.3243C3.28749 24.6823 6.08749 27.4076 9.53749 27.4076H20.4625C23.9125 27.4076 26.7125 24.6823 26.7125 21.3243V14.1217C25.7625 15.1194 24.4125 15.6912 22.95 15.6912C21.375 15.6912 19.8625 14.9247 18.9125 13.6959C18.0625 14.9247 16.6125 15.6912 15 15.6912C13.4 15.6912 11.975 14.9612 11.1125 13.7446C10.15 14.9491 8.66249 15.6912 7.11249 15.6912C5.59999 15.6912 4.22499 15.0951 3.28749 14.0366Z" fill="#F53D6B"/>
<path d="M11.2625 1.69969H18.7625L19.6875 10.6543C19.7625 11.4816 19.6375 12.2603 19.325 12.9659C18.6 14.6206 16.9 15.6912 15 15.6912C13.075 15.6912 11.4125 14.6449 10.6625 12.9781C10.4375 12.4549 10.3 11.8466 10.2875 11.2261V10.9949L11.2625 1.69969Z" fill="#F53D6B"/>
<path opacity="0.6" d="M2.05 10.2406L2.4125 6.87048C2.9375 3.19618 4.65 1.69969 8.3125 1.69969H13.1125L12.1875 10.8246C12.175 10.9463 12.1625 11.0801 12.1625 11.3113C12.0875 11.9439 11.8875 12.5279 11.5875 13.0511C10.6875 14.6571 8.9375 15.6912 7.1125 15.6912C5.45 15.6912 3.95 14.9734 3.0125 13.7081C2.2625 12.7348 1.925 11.5059 2.05 10.2406Z" fill="#F53D6B"/>
<path opacity="0.6" d="M21.7625 1.69969C25.4375 1.69969 27.1375 3.19618 27.675 6.90698L28.0125 10.2528C28.1375 11.5546 27.775 12.8199 26.9875 13.8054C26.0375 15.0099 24.575 15.6912 22.95 15.6912C21.125 15.6912 19.375 14.6571 18.4875 13.0754C18.1625 12.5279 17.95 11.8953 17.8875 11.2383L16.9125 1.71186H21.7625V1.69969Z" fill="#F53D6B"/>
<path d="M15.8125 20.4483C17.4 20.6065 18.6 21.9205 18.6 23.4778V27.4076H11.4125V23.9036C11.4 21.3608 12.9375 20.1563 15.8125 20.4483Z" fill="#F53D6B"/>
</svg>
