<svg width="24" height="24" viewBox="0 0 24 24" fill="none" xmlns="http://www.w3.org/2000/svg">
<path d="M13.9497 18.9259H10.0236C9.30887 18.9259 9.30887 17.8459 10.0236 17.8459H13.9497C14.6645 17.8459 14.6645 18.9259 13.9497 18.9259Z" fill="#FF992E"/>
<path d="M16.789 21.0881H7.18417C6.46945 21.0881 6.46945 20.0081 7.18417 20.0081H16.789C17.5037 20.0081 17.5037 21.0881 16.789 21.0881Z" fill="#FF992E"/>
<path d="M11.4468 2.91187C9.06647 3.04075 6.92303 4.0029 5.27399 5.48898L7.33199 7.54698C8.42855 6.5937 9.83327 5.94762 11.4468 5.8281V2.91187Z" fill="#FF992E"/>
<path d="M4.85184 12.4255C4.96656 10.8523 5.58648 9.45842 6.56928 8.3117L4.50648 6.2489C3.01032 7.91066 2.05896 10.0073 1.93344 12.4255H4.85184Z" fill="#FF992E"/>
<path d="M4.84704 13.5055H1.93344C2.04624 15.629 2.80464 17.5812 4.03152 19.1565C4.21896 19.397 4.5756 19.4232 4.80816 19.2259L6.20208 18.0451C6.42864 17.8531 6.45096 17.5224 6.27168 17.2855C5.46456 16.2192 4.9524 14.9191 4.84704 13.5055V13.5055Z" fill="#FF992E"/>
<path d="M20.61 7.75464C20.1228 8.35296 19.3997 9.24024 18.5913 10.2302C18.9439 11.0741 19.1505 11.9935 19.1505 12.9655C19.1505 14.5987 18.6041 16.1042 17.6839 17.3093C17.5101 17.5368 17.5593 17.8644 17.7782 18.0487L19.1659 19.2168C19.4013 19.4151 19.7618 19.3879 19.9507 19.1448C21.2769 17.4382 22.0665 15.294 22.0665 12.9653C22.0668 11.028 21.5244 9.258 20.61 7.75464V7.75464Z" fill="#FF992E"/>
<path d="M19.9673 6.83228C18.2021 4.55444 15.5026 3.07316 12.5268 2.9126V5.83076C14.3774 5.97188 16.2785 6.83444 17.6282 8.56052C17.6282 8.56052 11.1986 13.3332 10.9699 13.5621C10.4441 14.088 10.4441 14.9407 10.9699 15.4665C11.4958 15.9924 12.3485 15.9924 12.8743 15.4665C13.2151 15.1255 19.9673 6.83228 19.9673 6.83228V6.83228ZM19.9404 6.8654C19.9406 6.8654 19.9406 6.86516 19.9406 6.86516L19.9404 6.8654Z" fill="#FF992E"/>
</svg>
